<?xml version="1.0" encoding="utf-8"?>
<!-- Generator: Adobe Illustrator 21.0.1, SVG Export Plug-In . SVG Version: 6.00 Build 0)  -->
<svg version="1.1" id="Ebene_1" xmlns="http://www.w3.org/2000/svg" xmlns:xlink="http://www.w3.org/1999/xlink" x="0px" y="0px"
	 viewBox="0 0 140 70" style="enable-background:new 0 0 140 70;" xml:space="preserve">
<style type="text/css">
	.st0{fill:#999A9A;}
	.st1{fill:#FFFFFF;}
	.st2{fill:#6E6E6D;}
	.st3{fill:#393938;}
	.st4{fill:#FF8700;}
</style>
<g>
	<rect x="0" y="0" class="st0" width="140" height="70"/>
	<g>
		<path class="st1" d="M35.96,20.54c0-1.98,0.47-2.65,1.13-3.21c-5.67,0.66-12.48,2.74-14.66,5.39c-0.47,0.66-0.76,1.7-0.76,3.03
			c0,8.42,8.98,27.52,15.32,27.52c2.93,0,7.87-4.82,11.94-11.35c-0.54,0.16-0.97,0.21-1.54,0.21
			C42.76,42.13,35.96,25.93,35.96,20.54z"/>
		<path class="st1" d="M45.98,16.76c-2.46,0-3.4,0.47-3.4,2.93c0,5.39,4.82,16.17,8.7,16.17c2.17,0,6.43-8.13,6.43-14.85
			C57.71,17.71,51.84,16.76,45.98,16.76z"/>
		<rect x="68.58" y="6.09" class="st1" width="0.33" height="58.32"/>
		<polygon class="st1" points="82.72,25.23 83.69,25.23 83.69,18.24 85.42,18.24 85.42,17.39 81,17.39 81,18.24 82.72,18.24 		"/>
		<polygon class="st1" points="88.39,25.23 89.38,25.23 89.38,21.59 91.42,17.39 90.4,17.39 88.93,20.65 87.46,17.39 86.38,17.39
			88.39,21.59 		"/>
		<path class="st1" d="M93.45,22.26h0.94c0.78,0,1.33-0.2,1.67-0.61c0.34-0.41,0.5-1.04,0.5-1.92c0-1.62-0.73-2.42-2.19-2.42
			c-0.62,0-1.25,0.03-1.89,0.08v7.84h0.97V22.26z M93.45,18.18l0.14-0.01c0.2-0.04,0.51-0.05,0.92-0.05c0.39,0,0.66,0.14,0.82,0.41
			c0.16,0.28,0.24,0.71,0.24,1.31c0,1.08-0.35,1.62-1.06,1.62h-1.06V18.18z"/>
		<path class="st1" d="M100.01,25.31c0.89,0,1.5-0.32,1.84-0.96c0.34-0.64,0.5-1.66,0.5-3.07c0-1.41-0.17-2.42-0.5-3.04
			c-0.34-0.62-0.95-0.92-1.84-0.92c-0.89,0-1.5,0.31-1.84,0.92c-0.34,0.62-0.5,1.63-0.5,3.04c0,1.41,0.17,2.44,0.5,3.07
			C98.5,24.99,99.12,25.31,100.01,25.31z M98.95,18.8c0.2-0.44,0.55-0.66,1.05-0.66c0.51,0,0.86,0.22,1.05,0.66
			c0.2,0.44,0.29,1.26,0.29,2.47c0,1.21-0.1,2.05-0.3,2.52c-0.2,0.47-0.55,0.71-1.05,0.71s-0.85-0.24-1.05-0.71
			c-0.2-0.47-0.3-1.31-0.3-2.52C98.66,20.07,98.76,19.24,98.95,18.8z"/>
		<path class="st1" d="M106.75,23.01c0-1.18-0.33-1.81-1-1.91c0.56-0.17,0.85-0.71,0.85-1.62c0-0.8-0.15-1.37-0.45-1.69
			c-0.3-0.32-0.75-0.48-1.36-0.48c-0.2,0-0.65,0.07-1.36,0.21v0.8c0.61-0.12,1.07-0.19,1.36-0.19s0.51,0.1,0.65,0.3
			c0.14,0.2,0.21,0.51,0.21,0.95c0,0.92-0.32,1.38-0.95,1.38h-0.8v0.8h0.92c0.38,0,0.63,0.12,0.77,0.36c0.13,0.24,0.2,0.64,0.2,1.19
			c0,0.89-0.34,1.33-1.02,1.33c-0.34,0-0.8-0.06-1.38-0.18v0.83c0.58,0.14,1.06,0.21,1.47,0.2c0.64,0,1.12-0.18,1.43-0.54
			C106.59,24.41,106.75,23.82,106.75,23.01z"/>
		<path class="st1" d="M83.83,38.77c0.81,0,1.43-0.18,1.86-0.53c0.43-0.35,0.65-1.01,0.65-1.97c0-0.56-0.12-0.99-0.36-1.3
			c-0.24-0.31-0.52-0.48-0.86-0.51c0.67-0.19,1-0.73,1-1.62c0-0.75-0.19-1.29-0.56-1.62c-0.37-0.32-1.01-0.49-1.92-0.49
			c-0.49,0-1.17,0.03-2.04,0.1v7.84l0.35,0.02C82.76,38.74,83.39,38.77,83.83,38.77z M83.15,32.07l0.75-0.04
			c0.23,0,0.4,0.08,0.53,0.24c0.13,0.16,0.19,0.4,0.19,0.72s-0.07,0.56-0.2,0.71c-0.13,0.15-0.36,0.23-0.67,0.23h-0.59V32.07z
			 M83.15,35.18h0.67c0.64,0,0.96,0.38,0.96,1.13c0,0.75-0.28,1.13-0.83,1.13c-0.27,0-0.54-0.01-0.8-0.03V35.18z"/>
		<path class="st1" d="M91.94,33.15c0-0.85-0.18-1.46-0.56-1.85c-0.37-0.39-1.02-0.58-1.95-0.58c-0.62,0-1.31,0.04-2.06,0.11v7.84
			h1.54v-2.99h0.45l1.19,2.99h1.73l-1.4-3.25C91.58,35.06,91.94,34.3,91.94,33.15z M90.17,34.06c-0.14,0.19-0.33,0.29-0.57,0.29
			H88.9v-2.29l0.68-0.07c0.31,0,0.52,0.09,0.63,0.28c0.11,0.18,0.16,0.48,0.16,0.89C90.38,33.56,90.31,33.86,90.17,34.06z"/>
		<path class="st1" d="M94.31,38.53c0.35,0.16,0.8,0.25,1.34,0.25c0.54,0,0.99-0.08,1.35-0.25c0.35-0.16,0.62-0.43,0.8-0.8
			c0.18-0.37,0.31-0.79,0.37-1.26c0.07-0.47,0.1-1.08,0.1-1.82c0-1.4-0.18-2.41-0.54-3.02c-0.36-0.61-1.06-0.92-2.08-0.92
			c-1.02,0-1.72,0.31-2.08,0.92c-0.36,0.61-0.54,1.62-0.54,3.02c0,0.74,0.03,1.35,0.1,1.82c0.07,0.47,0.19,0.89,0.38,1.26
			C93.69,38.11,93.96,38.37,94.31,38.53z M94.81,32.48c0.15-0.37,0.43-0.55,0.84-0.55c0.41,0,0.69,0.18,0.84,0.55
			c0.15,0.37,0.22,1.11,0.22,2.23c0,1.12-0.08,1.87-0.23,2.27c-0.15,0.39-0.43,0.59-0.83,0.59c-0.4,0-0.68-0.2-0.83-0.59
			c-0.15-0.4-0.23-1.15-0.23-2.27C94.59,33.6,94.66,32.85,94.81,32.48z"/>
		<polygon class="st1" points="103.18,37.83 101.55,30.83 99.32,30.83 99.32,38.67 100.82,38.67 100.82,32.96 102.16,38.67
			104.52,38.67 104.52,30.83 103.18,30.83 		"/>
		<polygon class="st1" points="105.53,32.17 108.07,32.17 105.27,37.18 105.27,38.67 109.59,38.67 109.59,37.33 106.92,37.33
			109.71,32.33 109.71,30.83 105.53,30.83 		"/>
		<polygon class="st1" points="114.9,37.46 112.43,37.46 112.43,35.22 114.62,35.22 114.62,34.01 112.43,34.01 112.43,32.04
			114.9,32.04 114.9,30.83 110.89,30.83 110.89,38.67 114.9,38.67 		"/>
		<polygon class="st1" points="84.43,48.47 83.36,44.27 81.78,44.27 81.78,52.11 82.69,52.11 82.69,44.8 83.95,49.46 84.81,49.48
			86.01,45.08 86.01,52.11 86.94,52.11 86.94,44.27 85.48,44.27 		"/>
		<polygon class="st1" points="88.29,52.11 91.96,52.11 91.96,51.28 89.26,51.28 89.26,48.47 91.68,48.47 91.68,47.67 89.26,47.67
			89.26,45.1 91.96,45.1 91.96,44.27 88.29,44.27 		"/>
		<polygon class="st1" points="96.19,48.47 95.13,44.27 93.55,44.27 93.55,52.11 94.46,52.11 94.46,44.8 95.72,49.46 96.58,49.48
			97.77,45.08 97.77,52.11 98.7,52.11 98.7,44.27 97.25,44.27 		"/>
		<path class="st1" d="M103.08,47.93c0.25-0.11,0.46-0.3,0.63-0.6c0.17-0.29,0.26-0.66,0.26-1.09c0-0.72-0.18-1.25-0.55-1.57
			c-0.36-0.32-0.9-0.48-1.6-0.48c-0.49,0-1.08,0.03-1.77,0.08v7.84l0.27,0.02c0.45,0.04,0.99,0.05,1.63,0.05
			c0.72,0,1.26-0.18,1.64-0.55c0.38-0.37,0.56-1.01,0.56-1.94C104.16,48.78,103.8,48.19,103.08,47.93z M101.03,45.06l0.12-0.01
			c0.18-0.04,0.45-0.05,0.81-0.05c0.4,0,0.68,0.1,0.83,0.29c0.15,0.2,0.22,0.49,0.22,0.88c0,0.38-0.03,0.67-0.09,0.85
			c-0.14,0.38-0.46,0.58-0.95,0.58h-0.93V45.06z M102.88,51.06c-0.19,0.21-0.46,0.32-0.79,0.32c-0.33,0-0.69-0.02-1.06-0.05v-2.94
			h1.04c0.4,0,0.68,0.11,0.85,0.34c0.16,0.23,0.25,0.62,0.25,1.17C103.17,50.47,103.07,50.85,102.88,51.06z"/>
		<polygon class="st1" points="105.47,52.11 109.15,52.11 109.15,51.28 106.44,51.28 106.44,48.47 108.87,48.47 108.87,47.67
			106.44,47.67 106.44,45.1 109.15,45.1 109.15,44.27 105.47,44.27 		"/>
		<path class="st1" d="M113.68,48.7c0.74-0.29,1.12-1.03,1.12-2.22c0-0.75-0.16-1.31-0.48-1.7c-0.32-0.39-0.88-0.58-1.69-0.58
			c-0.62,0-1.25,0.03-1.89,0.08v7.84h0.97v-3.26h1l1.43,3.26h1.07L113.68,48.7z M112.76,48.05h-1.06v-2.99l0.14-0.01
			c0.2-0.04,0.51-0.05,0.92-0.05c0.39,0,0.66,0.12,0.81,0.36c0.15,0.24,0.23,0.64,0.23,1.21s-0.09,0.96-0.26,1.17
			C113.36,47.94,113.1,48.05,112.76,48.05z"/>
	</g>
</g>
</svg>
