<?xml version="1.0" encoding="utf-8"?>
<!-- Generator: Adobe Illustrator 21.0.0, SVG Export Plug-In . SVG Version: 6.00 Build 0)  -->
<svg version="1.1" id="Ebene_1" xmlns="http://www.w3.org/2000/svg" xmlns:xlink="http://www.w3.org/1999/xlink" x="0px" y="0px"
	 viewBox="0 0 295.2 38.2" style="enable-background:new 0 0 295.2 38.2;" xml:space="preserve">
<style type="text/css">
	.st0{fill:#515151;}
</style>
<g>
	<path class="st0" d="M21.4,13.2c-1.2-0.7-2.6-1.3-4.2-1.2c-2.6,0.2-5.3,0-8,0c-0.7,0-1.3,0-2,0C5.4,11.9,5.9,10.4,6,9.4
		c0.1-1.1-0.9-2.8,1.1-3.3C7.8,5.9,8.5,6,9.1,6c4.3,0,8.6,0,13,0c0.7,0,1.4,0,1.8-0.6c1.3-2.3-0.4-5.2-3-5.2c-4-0.1-8,0-12,0
		C3.6,0.1,3.6,0.1,0,3c0,4,0,8,0,12c1.9,2.2,4.1,3.3,7.1,3c3-0.2,6,0,8.9-0.1c1.5,0,2.2,0.5,2,2c0,0.2,0,0.3,0,0.5
		c0.1,3.5,0.1,3.6-3.4,3.6c-3.6,0-7.3,0.1-10.9,0c-1.4,0-2.6,0.3-3.7,1c0,1.7,0,3.3,0,5c6.1,0,12.3,0.1,18.4,0
		c3.7-0.1,5.3-1.8,5.5-5.4c0.1-2.3-0.1-4.7,0-7C24.1,15.5,23,14.1,21.4,13.2z"/>
	<path class="st0" d="M81,15.6c0,4,0,8,0,12c0,1.1,0.4,2.4-1.4,2.5c-2.8,0.2-4-0.3-4.4-2c-0.3-1.3,0.9-3.2-0.9-3.9
		c-1.3-0.5-2,1.4-3.3,1.9c-1.5,0.6-3,1.4-4.2,2.5c-0.6,0.5-1.4,0.9-2.2,1.1c-4.1,1.5-7.4-0.6-7.5-4.9c-0.2-7.3,0-14.6-0.1-21.9
		c0-1.1,0.1-2.1,1.2-2.5c1.4-0.6,2.9-0.5,4.3,0C63.2,0.7,63,1.6,63,2.2c0,5.7,0,11.3,0,17c0,1,0,2,0.1,3c0.1,0.8,0.8,1.1,1.5,0.7
		c3.1-1.7,6.3-3.5,9.4-5.3c1.1-0.7,1.2-1.8,1.2-3.1c0-3.5,0-7,0-10.5c0-3.7,0.5-4,3.9-4c1.5,0,2,0.6,2,2C80.9,6.6,81,11.1,81,15.6z"
		/>
	<path class="st0" d="M169,28.2c0-1.5,0-3,0-4.5c0-1.7,0.5-3.6-0.2-4.9c-0.9-1.6-3-0.5-4.6-0.7c-0.8-0.1-1.1-0.5-1.2-1.3
		c0-1,0-2,0-3c0-1.3,0.7-1.6,1.9-1.7c1.3-0.1,2.8,0.6,3.8-0.4c0.9-1,0.3-2.5,0.3-3.8c0.1-5.7,2-7.6,7.7-7.6c2.5,0,5-0.1,7.5,0
		c2,0.1,2.7,0.8,2.8,2.7c0.1,2.2-0.6,3.1-2.7,3.2c-2.5,0.1-5,0-7.5,0c-2.6,0-2.6,0.1-2.6,2.9c0,0.5,0,1,0,1.5
		c-0.1,1.4,0.7,1.7,1.8,1.7c2.8,0,5.7-0.1,8.5,0c1.8,0.1,2.5,1,2.6,2.9c0,2-0.6,2.9-2.4,3c-2.5,0.1-5,0-7.5,0
		c-2.3,0.1-2.9,0.6-2.9,3c-0.1,3.5-0.2,7,0,10.5c0.2,2.7-0.8,4.4-3.2,5.5c-1.8,0.9-1.9,0.9-1.9-0.9C168.9,33.5,169,30.9,169,28.2
		C169,28.2,169,28.2,169,28.2z"/>
	<path class="st0" d="M108.1,14.8c0-2.7,0-5.3,0-8c0.1-4.6,2.1-6.6,6.6-6.7c4-0.1,8,0,12,0c2.3,0,2.3,0.1,2.4,2.6c0,0.3,0,0.7,0,1
		c0.2,1.6-0.3,2.4-2.2,2.3c-3-0.1-6-0.1-9,0c-3.3,0-3.8,0.5-3.8,3.6c-0.1,3.8-0.1,7.6,0,11.5c0,2.3,0.6,3,2.9,3
		c3.3,0.1,6.6,0.1,10,0c1.4,0,2.2,0.3,2.1,1.9c0,0.3,0,0.7,0,1c0,3,0,3-2.9,3c-4,0-8,0-12,0c-3.6-0.1-5.8-2.1-6-5.7
		C108,21.2,108.1,18,108.1,14.8z"/>
	<path class="st0" d="M86,14.8c0-4.1,0.1-8.3,0-12.4c0-1.7,0.4-2.4,2.2-2.3c3.2,0.1,3.5,0.3,3.7,3.7c0.2,2.4,0.2,2.4,2.4,1.2
		c2.7-1.5,5.3-3.1,8-4.7c0.7-0.4,1.3-0.2,1.5,0.6c0.7,2.8-0.4,5.1-2.8,6.6c-2,1.2-3.9,2.4-5.9,3.4c-2.3,1.2-3.4,2.8-3.2,5.5
		c0.2,3.5,0.1,7,0,10.5c0,2.6-2.8,4.2-5.2,3.1c-0.7-0.3-0.7-1-0.7-1.7C86,23.8,86,19.3,86,14.8C86,14.8,86,14.8,86,14.8z"/>
	<path class="st0" d="M220,15.1c0-4.2,0-8.3,0-12.5c0-1.1-0.4-2.4,1.5-2.5c2.8-0.2,4.1,0.3,4.4,2c0.1,0.5,0,1,0,1.5
		c0.2,2.6,0.2,2.6,2.7,1.2c2.4-1.3,4.8-2.8,7.2-4.2c1-0.6,1.8,0,1.8,1.1c0,3.9-0.2,4.3-3.6,6.2c-1.8,1-3.5,2.3-5.5,3.2
		c-1.8,0.8-3,2.4-2.8,4.8c0.3,3.6,0.1,7.3,0.1,11c-0.1,2.5-3.3,4.2-5.4,2.8c-0.7-0.4-0.6-1.1-0.6-1.8C220,23.7,220,19.4,220,15.1z"
		/>
	<path class="st0" d="M266,16.1C266,16.1,266,16.1,266,16.1c0-4.7,0-9.3,0-14c0-1,0-2-1.5-2c-5.6,0-11.3-0.1-16.9,0.1
		c-3.2,0.1-5.4,2.4-5.4,5.8c-0.1,6-0.3,12,0,17.9c0.3,5,3.5,8,8.7,5.2c2.1-1.2,4.2-2.5,6.3-3.7c0.8-0.5,1.4-1.8,2.5-1
		c0.9,0.6,0.3,1.8,0.5,2.8c0.2,1.3-0.6,2.2-1.6,2.8c-2.5,1.5-5.2,2.7-7.7,4.3c-1.3,0.8-3.8,1.6-3.5,2.9c0.4,2.1,2.7,0.6,4.2,0.9
		c2.9,0.6,5.4-0.8,7.9-2.1c1.6-0.8,3-2,4.6-2.8c1.6-0.8,2.1-1.9,2-3.6C266,25,266,20.5,266,16.1z M258.9,17.6
		c-3.1,1.8-6.2,3.6-9.3,5.3c-0.9,0.5-1.6-0.1-1.6-1.1c0-2.3,0-4.6,0-7c0,0,0,0,0,0c0-2-0.1-4,0-6c0.1-2,0.8-2.6,2.6-2.8
		c0.3,0,0.7,0,1,0c2.7,0.3,5.6-0.6,8.2,0.6c0.1,2.8,0.1,5.6,0.2,8.4C260.1,16.1,259.8,17,258.9,17.6z"/>
	<path class="st0" d="M157.9,27.1c-0.1-2.4-0.5-2.9-2.9-2.9c-4.2-0.1-8.3,0-12.5,0c-0.4,0-0.9-0.3-1.3-0.5c0.4-0.2,0.8-0.4,1.1-0.7
		c1.5-1.2,3.3-2.1,5-3c2.3-1.1,4.5-2.6,6.8-3.9c2.6-1.6,3.9-3.9,3.8-6.9c0-1,0-2,0-3c-0.1-3.6-2.2-5.9-5.7-5.9
		c-4.2-0.1-8.3-0.1-12.5,0c-3.5,0-5.6,2.3-5.7,5.9c-0.1,3,0,6,0,9c0,3-0.1,6,0,9c0.1,4.3,1.6,5.9,5.9,6c5.2,0.1,10.3,0.1,15.5,0
		C157.9,30,158,29.9,157.9,27.1z M140,15.7c0-2.6,0-5.3,0-7.9c0-1.2,0.6-1.8,1.8-1.8c1.5,0,3,0,4.5,0c1.2,0,2.3,0,3.5,0
		c2.1,0.1,3.1,1.7,2.2,3.6c-0.4,0.7-1,1.4-1.6,1.8c-2.9,1.9-5.7,3.7-8.7,5.4C140.6,17.4,140,16.7,140,15.7z"/>
	<path class="st0" d="M291.8,24.1c-4.2-0.1-8.3,0-12.5,0c-0.5,0-0.9-0.2-1.1-0.6c0-0.1,0.5-0.3,0.8-0.5c3.9-2.3,7.8-4.7,11.8-6.9
		c2.7-1.5,4.1-3.6,4.1-6.7c0-1,0-2,0-3c-0.2-4.2-2.2-6.2-6.5-6.3c-3.8-0.1-7.6-0.1-11.5,0c-3.6,0-5.8,2.2-5.9,5.7c-0.1,3,0,6,0,9
		c0,3.3-0.1,6.6,0,10c0.1,3.1,1.8,5.1,4.7,5.2c6,0.2,12,0.1,17.9,0c0.4,0,1-0.3,1.2-0.7C296,27,294.4,24.2,291.8,24.1z M276.9,15.5
		c-0.1-1.2,0-2.3,0-3.5c0-6.1,0-6.1,5.9-6.1c1.2,0,2.3,0,3.5,0c0.9,0,2.2-0.4,2.5,0.8c0.3,1.1,0.5,2.3-0.4,3.3
		c-1.1,1.2-2.3,2.2-3.8,3c-2,1.1-4.2,1.9-5.9,3.4C277.8,17.5,277,16.9,276.9,15.5z"/>
	<path class="st0" d="M215,15c0-3.2,0.1-6.3,0-9.5c-0.1-3.2-2.4-5.4-5.7-5.5c-4-0.1-8-0.1-11.9,0c-4.2,0.1-6.2,2.2-6.3,6.5
		c-0.1,6-0.1,11.9,0,17.9c0,3.2,2.4,5.5,5.6,5.5c4.3,0.1,8.6,0.1,12.9,0c3.6-0.1,5.2-1.9,5.3-5.5C215.1,21.3,215,18.2,215,15z
		 M207.2,24.1c-2.8-0.1-5.6,0-8.5,0c-1.2,0-1.8-0.5-1.8-1.8c0-4.5,0-9,0-13.4c0-2.1,0.7-2.8,2.5-2.9c2.7-0.1,5.3,0,8,0
		c1.4,0,1.6,0.9,1.6,2c0,2.3,0,4.6,0,7c0,2.3,0,4.6,0,7C209.1,23.2,208.9,24.2,207.2,24.1z"/>
	<path class="st0" d="M52.2,4.3c-0.5-3-2.4-4-4.7-4.1c-4.6-0.3-9.3-0.3-14,0C30.3,0.3,29,2,29,5.4c0,3.2,0,6.3,0,9.5
		c0,3.5-0.1,7,0,10.5c0.1,3,1.5,4.6,4.5,4.6c4.5,0.1,9,0.1,13.5,0c3.4-0.1,3.9-0.6,5-4.1C53.2,22.2,52.8,8,52.2,4.3z M46.9,21.7
		c0,1.5-0.9,2.5-2.5,2.5c-2.6,0-5.3,0-7.9,0c-1.6,0-2.4-1-2.5-2.5c-0.1-2.1,0-4.3,0-6.5c0-2.2-0.1-4.3,0-6.5
		c0.1-1.8,0.9-2.6,2.7-2.7c2.5-0.1,5-0.1,7.4,0c1.9,0.1,2.7,0.8,2.7,2.7C47,13,47,17.4,46.9,21.7z"/>
</g>
</svg>
