<?xml version="1.0" encoding="utf-8"?>
<!-- Generator: Adobe Illustrator 21.0.1, SVG Export Plug-In . SVG Version: 6.00 Build 0)  -->
<svg version="1.1" id="Ebene_1" xmlns="http://www.w3.org/2000/svg" xmlns:xlink="http://www.w3.org/1999/xlink" x="0px" y="0px"
	 width="54.5px" height="54.7px" viewBox="0 0 54.5 54.7" style="enable-background:new 0 0 54.5 54.7;" xml:space="preserve">
<style type="text/css">
	.st0{fill:#ff8700;}
</style>
<g>
	<g>
		<path class="st0" d="M18.7,10.5c0,0.6-0.4,0.8-1,0.8c-0.6,0-0.8-0.4-0.8-1V0.8c0-0.6,0.4-0.8,1-0.8c0.6,0,0.8,0.4,0.8,1V10.5z"/>
		<path class="st0" d="M23.1,13c-0.2,0.2-0.4,0.2-0.6,0.2c-0.2,0-0.4,0-0.6-0.2c-0.4-0.4-0.4-1,0-1.3l7.6-7.3c0.4-0.4,1-0.4,1.3,0
			c0.4,0.4,0.4,1,0,1.3L23.1,13z"/>
		<path class="st0" d="M33.6,18h-9.4c-0.6,0-0.8-0.4-0.8-1c0-0.6,0.4-0.8,1-0.8h9.4c0.6,0,0.8,0.4,0.8,1C34.4,17.6,34,18,33.6,18z"
			/>
	</g>
	<g>
		<path class="st0" d="M15.9,24.6c0-0.6,0.4-0.8,1-0.8c0.6,0,0.8,0.4,0.8,1v9.4c0,0.6-0.4,0.8-1,0.8c-0.6,0-0.8-0.4-0.8-1V24.6z"/>
		<path class="st0" d="M11.8,22c0.2-0.2,0.4-0.2,0.6-0.2s0.4,0,0.6,0.2c0.4,0.4,0.4,1,0,1.3l-7.6,7.3c-0.4,0.4-1,0.4-1.3,0
			c-0.4-0.4-0.4-1,0-1.3L11.8,22z"/>
		<path class="st0" d="M1,17h9.4c0.6,0,0.8,0.4,0.8,1c0,0.6-0.4,0.8-1,0.8H0.8c-0.6,0-0.8-0.4-0.8-1S0.6,17,1,17z"/>
	</g>
	<g>
		<path class="st0" d="M12.8,11.8C13,12,13,12.2,13,12.4c0,0.2,0,0.4-0.2,0.6c-0.4,0.4-1,0.4-1.3,0L4.2,5.5c-0.4-0.4-0.4-1,0-1.3
			c0.4-0.4,1-0.4,1.3,0L12.8,11.8z"/>
	</g>
	<path class="st0" d="M21.4,22L21.4,22c-0.2,0.2-0.2,0.4-0.2,0.6l11.3,29.2c0,0.2,0.2,0.4,0.6,0.4c0.2,0,0.4-0.2,0.6-0.4l3.6-8.6l11.1,11.1
		c0.4,0.4,0.8,0.4,1.3,0l4.4-4.4c0.4-0.4,0.4-0.8,0-1.3L43,37.6l8.6-3.6c0.2,0,0.4-0.2,0.4-0.6c0-0.2-0.2-0.4-0.4-0.6L22,22
		C21.8,21.8,21.6,22,21.4,22L21.4,22z"/>
</g>
</svg>
