<?xml version="1.0" encoding="utf-8"?>
<!-- Generator: Adobe Illustrator 21.0.1, SVG Export Plug-In . SVG Version: 6.00 Build 0)  -->
<svg version="1.1" id="Ebene_1" xmlns="http://www.w3.org/2000/svg" xmlns:xlink="http://www.w3.org/1999/xlink" x="0px" y="0px"
	 width="64.4px" height="53px" viewBox="0 0 64.4 53" style="enable-background:new 0 0 64.4 53;" xml:space="preserve">
<style type="text/css">
	.st0{fill:#ff8700;}
</style>
<path class="st0" d="M62.1,26.8l-12.8-5.5V9.5c0-1.5-0.9-2.9-2.3-3.5L33.7,0.3c-0.5-0.2-1-0.3-1.5-0.3c-0.5,0-1,0.1-1.5,0.3L17.5,6
	c-1.4,0.6-2.3,2-2.3,3.5v11.8L2.3,26.8c-1.4,0.6-2.3,2-2.3,3.5v12.3C0,44,0.8,45.4,2.1,46l13.3,6.6c0.5,0.3,1.1,0.4,1.7,0.4
	s1.2-0.1,1.7-0.4L32,46c0.1,0,0.1-0.1,0.2-0.1c0.1,0.1,0.1,0.1,0.2,0.1l13.3,6.6c0.5,0.3,1.1,0.4,1.7,0.4s1.2-0.1,1.7-0.4L62.3,46
	c1.3-0.6,2.1-2,2.1-3.4V30.3C64.4,28.8,63.5,27.4,62.1,26.8z M17,34.9l-12-5.1l12-5.1l12,5.1L17,34.9z M30.3,42.6l-11.4,5.7V38.2
	l11.4-4.9V42.6z M32.2,15L19.1,9.4l13.1-5.6l13.1,5.6L32.2,15z M34.1,18.3l11.4-4.9v7.9l-11.4,4.9V18.3z M47.4,34.9l-12-5.1l12-5.1
	l12,5.1L47.4,34.9z M60.6,42.6l-11.4,5.7V38.2l11.4-4.9V42.6z"/>
</svg>
