<?xml version="1.0" encoding="utf-8"?>
<!-- Generator: Adobe Illustrator 21.0.1, SVG Export Plug-In . SVG Version: 6.00 Build 0)  -->
<svg version="1.1" id="Ebene_1" xmlns="http://www.w3.org/2000/svg" xmlns:xlink="http://www.w3.org/1999/xlink" x="0px" y="0px"
	 width="61.3px" height="53px" viewBox="0 0 61.3 53" style="enable-background:new 0 0 61.3 53;" xml:space="preserve">
	<style type="text/css">
	.st0{fill:#ff8700;}
</style>
<path class="st0" d="M60.7,41.4L49.6,52.6c-0.3,0.3-0.7,0.4-1.1,0.4s-0.8-0.1-1.1-0.5L36.2,41.4c-0.5-0.4-0.6-1.1-0.3-1.7c0.2-0.6,0.8-1,1.5-1
	h6.4V27.6c0-0.9,0.7-1.6,1.6-1.6h6.4c0.9,0,1.6,0.7,1.6,1.6v11.1h6.4c0.6,0,1.2,0.4,1.5,1C61.3,40.3,61.2,41,60.7,41.4z"/>
<g>
	<path class="st0" d="M25.6,13.4h24.5c1.8,0,3.3,1.5,3.3,3.3v3.2c1.5,0.1,3,0.1,4.5,0.2v-3.4c0-4.3-3.5-7.8-7.8-7.8H26.7V7.8
		c0-4.3-3.5-7.8-7.8-7.8H7.7C3.5,0,0,3.5,0,7.8v33.4C0,45.5,3.5,49,7.7,49h25.2l-4.5-4.5H7.7c-1.8,0-3.3-1.5-3.3-3.3V7.8
		c0-1.8,1.5-3.3,3.3-3.3h11.1c1.8,0,3.3,1.5,3.3,3.3V10C22.2,11.9,23.7,13.4,25.6,13.4z"/>
</g>
<g>
	<path class="st0" d="M32.3,31c-0.3,0.1-0.4,0.1-0.7,0.1c-2.1,0-5.2-7.3-5.2-9.7c0-0.9,0.2-1.2,0.5-1.4c-2.5,0.3-5.6,1.2-6.6,2.4
		c-0.2,0.3-0.3,0.7-0.3,1.4c0,3.8,4,12.3,6.9,12.3C28.3,36.1,30.5,33.9,32.3,31"/>
	<path class="st0" d="M31,19.7c2.6,0,5.2,0.4,5.2,1.9c0,3-1.9,6.6-2.9,6.6c-1.7,0-3.9-4.8-3.9-7.3C29.5,19.9,29.9,19.7,31,19.7"/>
</g>
</svg>
