<?xml version="1.0" encoding="utf-8"?>
<!-- Generator: Adobe Illustrator 21.0.1, SVG Export Plug-In . SVG Version: 6.00 Build 0)  -->
<svg version="1.1" id="Ebene_1" xmlns="http://www.w3.org/2000/svg" xmlns:xlink="http://www.w3.org/1999/xlink" x="0px" y="0px"
	 viewBox="0 0 140 70" style="enable-background:new 0 0 140 70;" xml:space="preserve">
<style type="text/css">
	.st0{fill:#999A9A;}
	.st1{fill:#FFFFFF;}
	.st2{fill:#6E6E6D;}
	.st3{fill:#393938;}
	.st4{fill:#FF8700;}
</style>
<g>
	<rect class="st2" width="140" height="70"/>
	<g>
		<path class="st1" d="M35.96,20.54c0-1.99,0.47-2.65,1.13-3.21c-5.67,0.66-12.48,2.74-14.66,5.39c-0.47,0.66-0.76,1.7-0.76,3.03
			c0,8.42,8.98,27.52,15.32,27.52c2.93,0,7.87-4.82,11.94-11.35c-0.54,0.16-0.97,0.21-1.54,0.21
			C42.77,42.13,35.96,25.93,35.96,20.54z"/>
		<path class="st1" d="M45.98,16.76c-2.46,0-3.4,0.47-3.4,2.93c0,5.39,4.82,16.17,8.7,16.17c2.17,0,6.43-8.13,6.43-14.85
			C57.71,17.71,51.85,16.76,45.98,16.76z"/>
		<rect x="68.58" y="6.09" class="st1" width="0.33" height="58.32"/>
		<polygon class="st1" points="82.73,25.23 83.7,25.23 83.7,18.24 85.43,18.24 85.43,17.39 81,17.39 81,18.24 82.73,18.24 		"/>
		<polygon class="st1" points="88.39,25.23 89.39,25.23 89.39,21.59 91.43,17.39 90.4,17.39 88.93,20.65 87.46,17.39 86.38,17.39
			88.39,21.59 		"/>
		<path class="st1" d="M93.46,22.26h0.94c0.78,0,1.33-0.2,1.67-0.61c0.34-0.4,0.5-1.04,0.5-1.92c0-1.62-0.73-2.42-2.19-2.42
			c-0.62,0-1.25,0.03-1.89,0.08v7.84h0.97V22.26z M93.46,18.18l0.14-0.01c0.2-0.04,0.51-0.05,0.92-0.05c0.39,0,0.66,0.14,0.82,0.41
			c0.16,0.28,0.24,0.71,0.24,1.31c0,1.08-0.35,1.62-1.06,1.62h-1.06V18.18z"/>
		<path class="st1" d="M101.85,24.35c0.34-0.64,0.5-1.66,0.5-3.07c0-1.41-0.17-2.42-0.5-3.04c-0.34-0.62-0.95-0.92-1.84-0.92
			c-0.89,0-1.5,0.31-1.84,0.92c-0.34,0.62-0.5,1.63-0.5,3.04c0,1.41,0.17,2.44,0.5,3.07c0.34,0.64,0.95,0.96,1.84,0.96
			C100.9,25.31,101.51,24.99,101.85,24.35z M101.06,23.8c-0.2,0.47-0.55,0.71-1.05,0.71c-0.5,0-0.85-0.24-1.05-0.71
			c-0.2-0.47-0.3-1.31-0.3-2.52c0-1.21,0.1-2.04,0.29-2.47c0.2-0.44,0.55-0.66,1.05-0.66c0.51,0,0.86,0.22,1.05,0.66
			c0.2,0.44,0.29,1.26,0.29,2.47C101.36,22.49,101.26,23.33,101.06,23.8z"/>
		<path class="st1" d="M106.28,24.77c0.31-0.36,0.47-0.95,0.47-1.76c0-1.18-0.33-1.81-1-1.9c0.57-0.17,0.85-0.71,0.85-1.62
			c0-0.8-0.15-1.37-0.45-1.69c-0.3-0.32-0.75-0.48-1.36-0.48c-0.2,0-0.65,0.07-1.36,0.21v0.8c0.61-0.13,1.07-0.19,1.36-0.19
			c0.29,0,0.51,0.1,0.65,0.3c0.14,0.2,0.21,0.51,0.21,0.95c0,0.92-0.32,1.38-0.95,1.38h-0.8v0.8h0.92c0.38,0,0.63,0.12,0.77,0.36
			c0.13,0.24,0.2,0.64,0.2,1.19c0,0.89-0.34,1.33-1.02,1.33c-0.34,0-0.8-0.06-1.38-0.18v0.83c0.58,0.14,1.06,0.21,1.47,0.2
			C105.49,25.31,105.97,25.13,106.28,24.77z"/>
		<path class="st1" d="M82.66,37.43c-0.52,0-1.02-0.06-1.48-0.19v1.34c0.43,0.11,0.9,0.16,1.43,0.16s0.93-0.03,1.21-0.08
			c0.28-0.05,0.55-0.16,0.8-0.32c0.49-0.32,0.74-0.99,0.74-2.01c0-0.78-0.15-1.36-0.46-1.72c-0.31-0.36-0.75-0.6-1.35-0.72
			c-0.36-0.08-0.6-0.18-0.71-0.31c-0.11-0.13-0.17-0.37-0.17-0.72c0-0.54,0.33-0.8,1-0.8c0.02,0,0.03,0,0.05,0
			c0.51,0,1,0.05,1.46,0.16v-1.32c-0.41-0.11-0.87-0.16-1.39-0.16c-0.89,0-1.56,0.17-2,0.52c-0.44,0.35-0.67,0.92-0.67,1.73
			c0,0.66,0.13,1.17,0.4,1.53c0.27,0.35,0.71,0.59,1.33,0.72c0.33,0.07,0.57,0.19,0.72,0.36c0.15,0.17,0.23,0.45,0.23,0.84
			C83.8,37.1,83.42,37.43,82.66,37.43z"/>
		<polygon class="st1" points="89.31,37.46 88.53,37.46 88.53,32.04 89.31,32.04 89.31,30.83 86.21,30.83 86.21,32.04 86.99,32.04
			86.99,37.46 86.21,37.46 86.21,38.67 89.31,38.67 		"/>
		<polygon class="st1" points="90.51,30.83 90.51,38.67 94.32,38.67 94.32,37.35 92.05,37.35 92.05,30.83 		"/>
		<polygon class="st1" points="97.23,37.57 96.05,30.83 94.49,30.83 96.01,38.67 98.38,38.67 99.95,30.83 98.45,30.83 		"/>
		<polygon class="st1" points="101.1,38.67 105.11,38.67 105.11,37.46 102.64,37.46 102.64,35.22 104.83,35.22 104.83,34.01
			102.64,34.01 102.64,32.04 105.11,32.04 105.11,30.83 101.1,30.83 		"/>
		<path class="st1" d="M109.9,35.42c0.71-0.36,1.07-1.12,1.07-2.27c0-0.85-0.19-1.46-0.56-1.85c-0.37-0.39-1.02-0.58-1.96-0.58
			c-0.62,0-1.31,0.04-2.06,0.11v7.84h1.54v-2.99h0.45l1.19,2.99h1.73L109.9,35.42z M109.2,34.06c-0.14,0.19-0.33,0.29-0.57,0.29
			h-0.71v-2.29l0.68-0.06c0.31,0,0.52,0.09,0.63,0.28c0.11,0.18,0.16,0.48,0.16,0.89C109.41,33.56,109.34,33.86,109.2,34.06z"/>
		<polygon class="st1" points="84.43,48.47 83.37,44.27 81.78,44.27 81.78,52.11 82.69,52.11 82.69,44.8 83.95,49.46 84.82,49.48
			86.01,45.08 86.01,52.11 86.94,52.11 86.94,44.27 85.49,44.27 		"/>
		<polygon class="st1" points="88.29,52.11 91.97,52.11 91.97,51.28 89.26,51.28 89.26,48.47 91.69,48.47 91.69,47.66 89.26,47.66
			89.26,45.1 91.97,45.1 91.97,44.27 88.29,44.27 		"/>
		<polygon class="st1" points="96.2,48.47 95.13,44.27 93.55,44.27 93.55,52.11 94.46,52.11 94.46,44.8 95.72,49.46 96.58,49.48
			97.78,45.08 97.78,52.11 98.71,52.11 98.71,44.27 97.26,44.27 		"/>
		<path class="st1" d="M103.08,47.93c0.25-0.11,0.46-0.31,0.63-0.6c0.17-0.29,0.26-0.66,0.26-1.09c0-0.72-0.18-1.25-0.55-1.57
			c-0.36-0.32-0.9-0.48-1.6-0.48c-0.49,0-1.08,0.03-1.77,0.08v7.84l0.27,0.02c0.45,0.04,0.99,0.05,1.63,0.05
			c0.72,0,1.26-0.18,1.64-0.55c0.38-0.37,0.56-1.01,0.56-1.94C104.16,48.78,103.8,48.19,103.08,47.93z M101.03,45.06l0.12-0.01
			c0.18-0.04,0.45-0.05,0.81-0.05c0.4,0,0.68,0.1,0.83,0.3c0.15,0.2,0.22,0.49,0.22,0.87c0,0.38-0.03,0.67-0.09,0.85
			c-0.14,0.38-0.46,0.58-0.95,0.58h-0.93V45.06z M102.88,51.06c-0.19,0.21-0.46,0.32-0.79,0.32c-0.33,0-0.69-0.02-1.06-0.05v-2.94
			h1.05c0.4,0,0.68,0.11,0.85,0.34c0.16,0.23,0.25,0.62,0.25,1.17S103.07,50.85,102.88,51.06z"/>
		<polygon class="st1" points="105.48,52.11 109.15,52.11 109.15,51.28 106.45,51.28 106.45,48.47 108.87,48.47 108.87,47.66
			106.45,47.66 106.45,45.1 109.15,45.1 109.15,44.27 105.48,44.27 		"/>
		<path class="st1" d="M113.68,48.69c0.74-0.29,1.12-1.03,1.12-2.22c0-0.75-0.16-1.31-0.48-1.7c-0.32-0.39-0.88-0.58-1.69-0.58
			c-0.62,0-1.25,0.03-1.89,0.08v7.84h0.97v-3.26h1l1.43,3.26h1.07L113.68,48.69z M112.77,48.05h-1.06v-2.99l0.14-0.01
			c0.2-0.04,0.51-0.05,0.92-0.05c0.39,0,0.66,0.12,0.81,0.36c0.15,0.24,0.23,0.64,0.23,1.21c0,0.57-0.09,0.96-0.26,1.17
			C113.37,47.94,113.11,48.05,112.77,48.05z"/>
	</g>
</g>
</svg>
