<?xml version="1.0" encoding="utf-8"?>
<!-- Generator: Adobe Illustrator 21.0.1, SVG Export Plug-In . SVG Version: 6.00 Build 0)  -->
<svg version="1.1" id="Ebene_1" xmlns="http://www.w3.org/2000/svg" xmlns:xlink="http://www.w3.org/1999/xlink" x="0px" y="0px"
	 viewBox="0 0 140 70" style="enable-background:new 0 0 140 70;" xml:space="preserve">
<style type="text/css">
	.st0{fill:#999A9A;}
	.st1{fill:#FFFFFF;}
	.st2{fill:#6E6E6D;}
	.st3{fill:#393938;}
	.st4{fill:#FF8700;}
</style>
<g>
	<rect class="st3" width="140" height="70"/>
	<g>
		<path class="st1" d="M35.96,20.54c0-1.99,0.47-2.65,1.13-3.21c-5.67,0.66-12.48,2.74-14.66,5.39c-0.47,0.66-0.76,1.7-0.76,3.03
			c0,8.41,8.98,27.52,15.32,27.52c2.93,0,7.87-4.82,11.94-11.35c-0.54,0.16-0.97,0.21-1.54,0.21
			C42.77,42.13,35.96,25.93,35.96,20.54z"/>
		<path class="st1" d="M45.98,16.76c-2.46,0-3.4,0.47-3.4,2.93c0,5.39,4.82,16.17,8.7,16.17c2.17,0,6.43-8.13,6.43-14.84
			C57.71,17.71,51.85,16.76,45.98,16.76z"/>
		<rect x="68.58" y="6.09" class="st1" width="0.33" height="58.32"/>
		<polygon class="st1" points="82.73,25.23 83.7,25.23 83.7,18.24 85.43,18.24 85.43,17.39 81,17.39 81,18.24 82.73,18.24 		"/>
		<polygon class="st1" points="88.39,25.23 89.39,25.23 89.39,21.59 91.43,17.39 90.4,17.39 88.93,20.65 87.46,17.39 86.38,17.39
			88.39,21.59 		"/>
		<path class="st1" d="M96.07,21.65c0.34-0.4,0.5-1.04,0.5-1.92c0-1.62-0.73-2.42-2.19-2.42c-0.62,0-1.25,0.03-1.89,0.08v7.84h0.97
			v-2.97h0.94C95.17,22.26,95.73,22.06,96.07,21.65z M93.46,18.18l0.14-0.01c0.2-0.04,0.51-0.05,0.92-0.05
			c0.39,0,0.66,0.14,0.82,0.41c0.16,0.28,0.24,0.71,0.24,1.31c0,1.08-0.35,1.62-1.06,1.62h-1.06V18.18z"/>
		<path class="st1" d="M100.01,25.31c0.89,0,1.5-0.32,1.84-0.96c0.33-0.64,0.5-1.66,0.5-3.07c0-1.41-0.17-2.42-0.5-3.04
			c-0.34-0.62-0.95-0.92-1.84-0.92c-0.89,0-1.5,0.31-1.84,0.92c-0.34,0.62-0.5,1.63-0.5,3.04c0,1.41,0.17,2.44,0.5,3.07
			C98.51,24.99,99.12,25.31,100.01,25.31z M98.96,18.8c0.2-0.44,0.55-0.66,1.05-0.66c0.51,0,0.86,0.22,1.05,0.66
			c0.2,0.44,0.29,1.26,0.29,2.47c0,1.21-0.1,2.05-0.3,2.52c-0.2,0.47-0.55,0.71-1.05,0.71s-0.85-0.24-1.05-0.71
			c-0.2-0.47-0.3-1.31-0.3-2.52C98.67,20.07,98.76,19.24,98.96,18.8z"/>
		<path class="st1" d="M106.75,23.01c0-1.18-0.33-1.81-1-1.9c0.57-0.17,0.85-0.71,0.85-1.62c0-0.8-0.15-1.37-0.45-1.69
			c-0.3-0.32-0.75-0.48-1.36-0.48c-0.2,0-0.65,0.07-1.36,0.21v0.8c0.61-0.13,1.07-0.19,1.36-0.19c0.29,0,0.51,0.1,0.65,0.3
			c0.14,0.2,0.21,0.51,0.21,0.95c0,0.92-0.32,1.38-0.95,1.38h-0.8v0.8h0.92c0.38,0,0.63,0.12,0.77,0.36c0.13,0.24,0.2,0.64,0.2,1.19
			c0,0.89-0.34,1.33-1.02,1.33c-0.34,0-0.8-0.06-1.38-0.18v0.83c0.58,0.14,1.06,0.21,1.47,0.2c0.64,0,1.12-0.18,1.43-0.54
			C106.6,24.41,106.75,23.82,106.75,23.01z"/>
		<path class="st1" d="M82.48,38.43c0.36,0.23,0.85,0.34,1.46,0.34c0.01,0,0.02,0.01,0.03,0.01c0.61,0,1.26-0.07,1.96-0.2v-4.25
			h-2.21v1.32h0.72v1.78c-0.1,0.01-0.25,0.01-0.47,0.01c-0.4,0-0.67-0.18-0.81-0.54c-0.14-0.36-0.21-1-0.21-1.92
			c0-0.93,0.04-1.57,0.11-1.94c0.08-0.37,0.2-0.63,0.36-0.76c0.16-0.13,0.45-0.2,0.86-0.2c0.37,0,0.84,0.05,1.42,0.16v-1.32
			c-0.58-0.12-1.08-0.19-1.52-0.19c-0.44,0-0.82,0.05-1.15,0.14c-0.33,0.1-0.63,0.28-0.89,0.56c-0.26,0.28-0.45,0.67-0.57,1.19
			c-0.12,0.52-0.18,1.26-0.18,2.22s0.09,1.74,0.27,2.34C81.84,37.79,82.11,38.2,82.48,38.43z"/>
		<path class="st1" d="M89.73,30.72c-1.02,0-1.72,0.31-2.08,0.92c-0.36,0.61-0.54,1.62-0.54,3.02c0,0.74,0.03,1.35,0.1,1.82
			c0.07,0.47,0.19,0.89,0.38,1.26c0.18,0.37,0.45,0.63,0.8,0.8c0.35,0.16,0.8,0.25,1.34,0.25c0.55,0,0.99-0.08,1.34-0.25
			c0.35-0.16,0.62-0.43,0.8-0.8c0.18-0.37,0.31-0.79,0.37-1.26c0.07-0.47,0.1-1.08,0.1-1.82c0-1.4-0.18-2.41-0.54-3.02
			C91.45,31.02,90.76,30.72,89.73,30.72z M90.57,36.98c-0.15,0.4-0.43,0.59-0.83,0.59c-0.4,0-0.68-0.2-0.83-0.59
			c-0.15-0.4-0.23-1.15-0.23-2.27c0-1.12,0.07-1.86,0.22-2.23c0.15-0.37,0.43-0.55,0.84-0.55c0.41,0,0.69,0.19,0.84,0.55
			c0.15,0.37,0.22,1.11,0.22,2.23C90.8,35.83,90.72,36.58,90.57,36.98z"/>
		<polygon class="st1" points="93.71,30.83 93.71,38.67 97.52,38.67 97.52,37.35 95.24,37.35 95.24,30.83 		"/>
		<path class="st1" d="M100.59,30.72c-0.45,0-1.13,0.04-2.03,0.11v7.84l2.12,0.11c0.61,0,1.1-0.11,1.48-0.33
			c0.79-0.48,1.18-1.76,1.18-3.84c0-1.6-0.24-2.66-0.73-3.18c-0.25-0.27-0.54-0.46-0.85-0.56
			C101.43,30.77,101.05,30.72,100.59,30.72z M101.55,36.86c-0.15,0.39-0.4,0.59-0.73,0.58l0,0c-0.34,0-0.57-0.01-0.72-0.04v-5.34
			l0.69-0.04c0.26,0,0.44,0.05,0.57,0.15c0.12,0.1,0.22,0.34,0.3,0.74c0.08,0.39,0.12,1.06,0.12,1.98
			C101.77,35.81,101.7,36.47,101.55,36.86z"/>
		<polygon class="st1" points="84.43,48.47 83.37,44.27 81.79,44.27 81.79,52.11 82.69,52.11 82.69,44.8 83.95,49.46 84.82,49.48
			86.01,45.08 86.01,52.11 86.94,52.11 86.94,44.27 85.49,44.27 		"/>
		<polygon class="st1" points="88.29,52.11 91.97,52.11 91.97,51.28 89.26,51.28 89.26,48.47 91.69,48.47 91.69,47.66 89.26,47.66
			89.26,45.1 91.97,45.1 91.97,44.27 88.29,44.27 		"/>
		<polygon class="st1" points="96.2,48.47 95.13,44.27 93.55,44.27 93.55,52.11 94.46,52.11 94.46,44.8 95.72,49.46 96.58,49.48
			97.78,45.08 97.78,52.11 98.71,52.11 98.71,44.27 97.26,44.27 		"/>
		<path class="st1" d="M103.08,47.93c0.25-0.11,0.46-0.31,0.63-0.6c0.17-0.29,0.26-0.66,0.26-1.09c0-0.72-0.18-1.25-0.55-1.57
			c-0.37-0.32-0.9-0.48-1.6-0.48c-0.49,0-1.08,0.03-1.77,0.08v7.84l0.27,0.02c0.45,0.04,0.99,0.05,1.63,0.05
			c0.72,0,1.26-0.18,1.64-0.55c0.38-0.37,0.56-1.01,0.56-1.94C104.17,48.78,103.8,48.19,103.08,47.93z M101.03,45.06l0.12-0.01
			c0.18-0.04,0.45-0.05,0.81-0.05c0.41,0,0.68,0.1,0.83,0.3c0.15,0.2,0.22,0.49,0.22,0.87c0,0.38-0.03,0.67-0.09,0.85
			c-0.14,0.38-0.46,0.58-0.95,0.58h-0.93V45.06z M102.88,51.06c-0.19,0.21-0.46,0.32-0.79,0.32c-0.33,0-0.69-0.02-1.06-0.05v-2.94
			h1.04c0.4,0,0.68,0.11,0.85,0.34c0.16,0.23,0.25,0.62,0.25,1.17S103.07,50.85,102.88,51.06z"/>
		<polygon class="st1" points="105.48,52.11 109.15,52.11 109.15,51.28 106.45,51.28 106.45,48.47 108.87,48.47 108.87,47.66
			106.45,47.66 106.45,45.1 109.15,45.1 109.15,44.27 105.48,44.27 		"/>
		<path class="st1" d="M113.68,48.69c0.74-0.29,1.12-1.03,1.12-2.22c0-0.75-0.16-1.31-0.48-1.7c-0.32-0.39-0.88-0.58-1.69-0.58
			c-0.62,0-1.25,0.03-1.89,0.08v7.84h0.97v-3.26h1l1.43,3.26h1.07L113.68,48.69z M112.77,48.05h-1.06v-2.99l0.14-0.01
			c0.2-0.04,0.51-0.05,0.92-0.05c0.39,0,0.66,0.12,0.81,0.36c0.15,0.24,0.23,0.64,0.23,1.21c0,0.57-0.09,0.96-0.26,1.17
			C113.37,47.94,113.11,48.05,112.77,48.05z"/>
	</g>
</g>
</svg>
