<?xml version="1.0" encoding="utf-8"?>
<!-- Generator: Adobe Illustrator 21.0.1, SVG Export Plug-In . SVG Version: 6.00 Build 0)  -->
<svg version="1.1" id="Ebene_1" xmlns="http://www.w3.org/2000/svg" xmlns:xlink="http://www.w3.org/1999/xlink" x="0px" y="0px"
	 viewBox="0 0 140 70" style="enable-background:new 0 0 140 70;" xml:space="preserve">
<style type="text/css">
	.st0{fill:#999A9A;}
	.st1{fill:#FFFFFF;}
	.st2{fill:#6E6E6D;}
	.st3{fill:#393938;}
	.st4{fill:#FF8700;}
</style>
<g>
	<rect y="0" class="st4" width="140" height="70"/>
	<g>
		<path class="st1" d="M31.71,20.54c0-1.99,0.47-2.65,1.13-3.22c-5.67,0.66-12.48,2.74-14.66,5.39c-0.47,0.66-0.76,1.7-0.76,3.03
			c0,8.42,8.98,27.51,15.32,27.51c2.93,0,7.88-4.82,11.94-11.35c-0.54,0.16-0.97,0.21-1.54,0.21
			C38.52,42.13,31.71,25.93,31.71,20.54z"/>
		<path class="st1" d="M41.73,16.76c-2.46,0-3.4,0.47-3.4,2.93c0,5.39,4.82,16.17,8.7,16.17c2.18,0,6.43-8.13,6.43-14.85
			C53.46,17.71,47.6,16.76,41.73,16.76z"/>
		<rect x="64.33" y="6.09" class="st1" width="0.32" height="58.32"/>
		<polygon class="st1" points="78.48,25.23 79.45,25.23 79.45,18.24 81.18,18.24 81.18,17.39 76.75,17.39 76.75,18.24 78.48,18.24
					"/>
		<polygon class="st1" points="84.14,25.23 85.14,25.23 85.14,21.59 87.18,17.39 86.15,17.39 84.68,20.65 83.21,17.39 82.13,17.39
			84.14,21.59 		"/>
		<path class="st1" d="M89.21,22.26h0.94c0.78,0,1.33-0.2,1.67-0.61c0.34-0.41,0.5-1.04,0.5-1.92c0-1.62-0.73-2.42-2.19-2.42
			c-0.62,0-1.25,0.03-1.89,0.08v7.84h0.97V22.26z M89.21,18.18l0.14-0.01c0.2-0.04,0.51-0.05,0.92-0.05c0.39,0,0.66,0.14,0.82,0.41
			c0.16,0.28,0.24,0.71,0.24,1.31c0,1.08-0.35,1.62-1.06,1.62h-1.05V18.18z"/>
		<path class="st1" d="M95.76,25.31c0.89,0,1.5-0.32,1.84-0.96c0.34-0.64,0.5-1.66,0.5-3.07c0-1.41-0.17-2.42-0.5-3.04
			c-0.33-0.62-0.95-0.92-1.84-0.92c-0.89,0-1.5,0.31-1.84,0.92c-0.34,0.62-0.5,1.63-0.5,3.04c0,1.41,0.17,2.44,0.5,3.07
			C94.26,24.99,94.87,25.31,95.76,25.31z M94.71,18.8c0.2-0.44,0.54-0.66,1.05-0.66c0.51,0,0.86,0.22,1.05,0.66
			c0.2,0.44,0.29,1.26,0.29,2.47c0,1.21-0.1,2.05-0.3,2.52c-0.2,0.47-0.55,0.71-1.05,0.71c-0.5,0-0.85-0.24-1.05-0.71
			c-0.2-0.47-0.3-1.31-0.3-2.52C94.42,20.07,94.51,19.24,94.71,18.8z"/>
		<path class="st1" d="M102.03,24.77c0.31-0.36,0.47-0.95,0.47-1.76c0-1.18-0.33-1.81-1-1.9c0.56-0.17,0.85-0.71,0.85-1.62
			c0-0.8-0.15-1.36-0.45-1.69c-0.3-0.32-0.75-0.48-1.37-0.48c-0.2,0-0.65,0.07-1.36,0.21v0.8c0.61-0.12,1.06-0.19,1.36-0.19
			c0.29,0,0.51,0.1,0.65,0.3c0.14,0.2,0.21,0.51,0.21,0.95c0,0.92-0.32,1.38-0.95,1.38h-0.8v0.8h0.92c0.38,0,0.63,0.12,0.77,0.36
			c0.13,0.24,0.2,0.64,0.2,1.19c0,0.89-0.34,1.33-1.02,1.33c-0.34,0-0.8-0.06-1.38-0.18v0.83c0.58,0.14,1.06,0.21,1.46,0.2
			C101.24,25.31,101.72,25.13,102.03,24.77z"/>
		<path class="st1" d="M78.9,35.97h0.64c0.84,0,1.47-0.2,1.87-0.6c0.4-0.4,0.61-1.07,0.61-1.99c0-0.92-0.19-1.6-0.57-2.02
			c-0.38-0.42-1.05-0.63-2.03-0.63c-0.62,0-1.31,0.04-2.06,0.11v7.84h1.54V35.97z M78.9,32.12c0.15-0.04,0.39-0.07,0.71-0.07
			c0.32,0,0.54,0.11,0.66,0.33c0.12,0.22,0.19,0.54,0.19,0.96c0,0.42-0.08,0.74-0.23,0.97c-0.15,0.22-0.36,0.34-0.62,0.34H78.9
			V32.12z"/>
		<polygon class="st1" points="87.01,37.35 84.73,37.35 84.73,30.83 83.2,30.83 83.2,38.67 87.01,38.67 		"/>
		<path class="st1" d="M91.52,36.84l0.36,1.83h1.56l-1.7-7.84h-2.27l-1.75,7.84h1.56l0.36-1.83H91.52z M90.58,31.82l0.7,3.71h-1.37
			L90.58,31.82z"/>
		<polygon class="st1" points="96.67,38.67 96.67,32.17 98.28,32.17 98.28,30.83 93.52,30.83 93.52,32.17 95.13,32.17 95.13,38.67
					"/>
		<polygon class="st1" points="102.22,37.46 101.44,37.46 101.44,32.04 102.22,32.04 102.22,30.83 99.12,30.83 99.12,32.04
			99.9,32.04 99.9,37.46 99.12,37.46 99.12,38.67 102.22,38.67 		"/>
		<polygon class="st1" points="108.62,30.83 107.28,30.83 107.28,37.83 105.65,30.83 103.42,30.83 103.42,38.67 104.92,38.67
			104.92,32.96 106.26,38.67 108.62,38.67 		"/>
		<path class="st1" d="M113.3,36.48c0,0.63-0.28,0.95-0.85,0.95c-0.56,0-0.84-0.32-0.84-0.95v-5.65h-1.54v5.44
			c0,0.9,0.2,1.54,0.6,1.91c0.4,0.38,0.99,0.57,1.79,0.57c0.79,0,1.39-0.19,1.78-0.57c0.4-0.38,0.6-1.02,0.6-1.91v-5.44h-1.54V36.48
			z"/>
		<polygon class="st1" points="120.19,30.83 119.43,34.23 118.69,30.83 116.36,30.83 116.36,38.67 117.85,38.67 117.85,31.99
			118.85,36.01 120.02,36.07 120.98,31.96 120.98,38.67 122.48,38.67 122.48,30.83 		"/>
		<polygon class="st1" points="80.18,48.47 79.12,44.27 77.53,44.27 77.53,52.11 78.44,52.11 78.44,44.8 79.7,49.46 80.57,49.48
			81.76,45.08 81.76,52.11 82.69,52.11 82.69,44.27 81.24,44.27 		"/>
		<polygon class="st1" points="84.04,52.11 87.72,52.11 87.72,51.28 85.01,51.28 85.01,48.47 87.44,48.47 87.44,47.66 85.01,47.66
			85.01,45.1 87.72,45.1 87.72,44.27 84.04,44.27 		"/>
		<polygon class="st1" points="91.95,48.47 90.88,44.27 89.3,44.27 89.3,52.11 90.21,52.11 90.21,44.8 91.47,49.46 92.33,49.48
			93.53,45.08 93.53,52.11 94.46,52.11 94.46,44.27 93,44.27 		"/>
		<path class="st1" d="M98.83,47.93c0.25-0.11,0.46-0.31,0.63-0.6c0.18-0.29,0.26-0.66,0.26-1.09c0-0.72-0.18-1.25-0.55-1.57
			s-0.9-0.48-1.6-0.48c-0.49,0-1.08,0.03-1.77,0.08v7.84l0.27,0.02c0.45,0.04,0.99,0.05,1.63,0.05c0.72,0,1.26-0.18,1.64-0.55
			c0.38-0.37,0.56-1.01,0.56-1.94C99.92,48.78,99.55,48.19,98.83,47.93z M96.78,45.06l0.12-0.01c0.18-0.04,0.45-0.05,0.81-0.05
			c0.41,0,0.68,0.1,0.83,0.3c0.15,0.2,0.22,0.49,0.22,0.88c0,0.38-0.03,0.67-0.09,0.85c-0.14,0.38-0.46,0.58-0.95,0.58h-0.93V45.06z
			 M98.63,51.06c-0.19,0.21-0.46,0.32-0.79,0.32c-0.33,0-0.69-0.02-1.06-0.05v-2.94h1.04c0.4,0,0.68,0.11,0.85,0.34
			c0.16,0.23,0.25,0.62,0.25,1.17S98.82,50.85,98.63,51.06z"/>
		<polygon class="st1" points="101.23,52.11 104.9,52.11 104.9,51.28 102.2,51.28 102.2,48.47 104.62,48.47 104.62,47.66
			102.2,47.66 102.2,45.1 104.9,45.1 104.9,44.27 101.23,44.27 		"/>
		<path class="st1" d="M110.55,46.47c0-0.75-0.16-1.31-0.48-1.7c-0.32-0.39-0.88-0.58-1.69-0.58c-0.62,0-1.25,0.03-1.89,0.08v7.84
			h0.97v-3.26h1l1.43,3.26h1.07l-1.53-3.42C110.18,48.41,110.55,47.67,110.55,46.47z M108.52,48.05h-1.06v-2.99l0.14-0.01
			c0.2-0.04,0.51-0.05,0.92-0.05c0.39,0,0.66,0.12,0.81,0.36c0.15,0.24,0.23,0.64,0.23,1.21c0,0.57-0.09,0.96-0.26,1.17
			C109.12,47.94,108.86,48.05,108.52,48.05z"/>
	</g>
</g>
</svg>
