<!-- Generated by IcoMoon.io -->
<svg version="1.1" xmlns="http://www.w3.org/2000/svg" width="512" height="512" viewBox="0 0 512 512">
<title></title>
<g id="icomoon-ignore">
</g>
<path d="M448 153.6h-384c-7.066 0-12.8-5.734-12.8-12.8s5.734-12.8 12.8-12.8h384c7.065 0 12.8 5.735 12.8 12.8s-5.735 12.8-12.8 12.8z"></path>
<path d="M448 281.6h-384c-7.066 0-12.8-5.735-12.8-12.8s5.734-12.8 12.8-12.8h384c7.065 0 12.8 5.735 12.8 12.8s-5.735 12.8-12.8 12.8z"></path>
<path d="M448 409.6h-384c-7.066 0-12.8-5.735-12.8-12.8s5.734-12.8 12.8-12.8h384c7.065 0 12.8 5.735 12.8 12.8s-5.735 12.8-12.8 12.8z"></path>
</svg>
