<?xml version="1.0" encoding="utf-8"?>
<!-- Generator: Adobe Illustrator 21.0.0, SVG Export Plug-In . SVG Version: 6.00 Build 0)  -->
<svg version="1.1" id="Layer_1" xmlns="http://www.w3.org/2000/svg" xmlns:xlink="http://www.w3.org/1999/xlink" x="0px" y="0px"
	 viewBox="0 0 388.2 85" style="enable-background:new 0 0 388.2 85;" xml:space="preserve">
<style type="text/css">
	.st0{fill:#515151;}
</style>
<g>
	<path class="st0" d="M140.6,24.9c-4.3,0-9.2,0.7-13.1,2c-2.9,0.9-4,1.9-4,5.2v39.7c0,0.7,0.5,1,1,1h0.3l6.2-1.2
		c0.8-0.1,1.1-0.5,1.1-1.3V59c2,0.5,5,1.1,8.3,1.1c11.9,0,14.2-7.5,14.2-17.6C154.6,32.4,153,24.9,140.6,24.9z M138.2,54.3
		c-3.5,0-6.1-0.8-6.1-0.8V31.9c0,0,3.8-1,6.7-1c4.9,0,7,1.1,7,11.5C145.8,52.1,144,54.3,138.2,54.3z"/>
</g>
<path class="st0" d="M176.5,60.2c-10.4,0-15-3.4-15-12.4V27.3c0-0.8,0.4-1.2,1.1-1.3l6.3-1.2h0.3c0.6,0,1,0.4,1,1v22.3
	c0,4.1,1.5,6.2,6.5,6.2c5.6,0,6.3-2.8,6.3-6.2V27.4c0-0.8,0.3-1.2,1.1-1.3l6.3-1.1c0.1-0.1,0.2-0.1,0.3-0.1c0.6,0,1,0.4,1,1.1v21.7
	C191.4,55.6,187.8,60.2,176.5,60.2"/>
<path class="st0" d="M228.8,59.4h-6.6c-0.6,0-1-0.4-1-1V35.8c0-3.7-1.4-5-4.8-5c-3.8,0-8,1.1-8,1.1v26.5c0,0.6-0.4,1-1,1h-6.5
	c-0.6,0-1.1-0.4-1.1-1V30.8c0-2.4,1.2-3.3,4.8-4.2c3.3-0.9,8.6-1.7,12.7-1.7c8,0,12.4,2.1,12.4,9.7v23.8
	C229.7,59,229.3,59.4,228.8,59.4"/>
<path class="st0" d="M268.9,58.8c0,0.2-0.3,0.6-0.6,0.6h-8.6c-0.3,0-0.6,0-1-0.4l-9.9-13.5h-2.2v12.9c0,0.6-0.3,1-1,1H239
	c-0.6,0-1-0.4-1-1V13.6c0-0.8,0.3-1.2,1.1-1.3l6.3-1.1h0.3c0.6,0,1,0.4,1,1.1v27.4h2.2l10.1-13.5c0.2-0.4,0.5-0.4,0.8-0.4l7.8,0.2
	c0.5,0,0.6,0.3,0.6,0.6c0,0.1-0.1,0.2-0.1,0.3l-12.1,15.3l12.8,16.4C268.8,58.5,268.9,58.7,268.9,58.8"/>
<path class="st0" d="M293.2,57.8c0,0.5-0.3,0.8-0.8,1c-1.1,0.3-3.9,1.2-8,1.2c-7.3,0-11-2.8-11-10.1v-33c0-0.8,0.4-1.2,1.1-1.3
	l6.3-1.2h0.3c0.6,0,0.9,0.3,0.9,1v10.3h9.2c0.6,0,1,0.4,1,1V31c0,0.6-0.4,0.9-1,0.9H282v17.7c0,2.8,1.2,4,4.5,4
	c1.9,0,3.8-0.3,4.9-0.6h0.3c0.4,0,0.6,0.2,0.7,0.7l0.8,3.7C293.1,57.6,293.2,57.6,293.2,57.8"/>
<path class="st0" d="M311.6,58.3c0,0.6-0.5,1.1-1.3,1.1h-7.6c-0.8,0-1.3-0.4-1.3-1.1v-6.1c0-0.6,0.5-1.1,1.3-1.1h7.6
	c0.8,0,1.3,0.5,1.3,1.1V58.3z"/>
<g>
	<path class="st0" d="M347.9,11.2h-0.3l-6.2,1.1c-0.8,0.1-1.1,0.6-1.1,1.3v12.5c-1.1-0.3-3.8-1.2-8.3-1.2
		c-11.3,0-14.2,6.5-14.2,17.8c0,13.1,4,17.5,16.5,17.5c4.3,0,7.9-0.6,10.7-1.4c3.7-1,3.8-3.1,3.8-5V12.2
		C348.9,11.6,348.5,11.2,347.9,11.2z M340.3,53.5c0,0-2.8,0.8-5.9,0.8c-5.4,0-7.8-1.2-7.8-11.9c0-10.2,2.1-11.5,7.6-11.5
		c3,0,6.2,0.7,6.2,0.7V53.5z"/>
</g>
<g>
	<path class="st0" d="M384.4,29.6c-2.3-3.1-6.3-4.7-12.8-4.7c-12.5,0-15.8,5.8-15.8,17.8c0,12.6,4.9,17.5,17.5,17.5
		c5.1,0,9.4-1.2,11.6-2.1c0.4-0.2,0.8-0.4,0.8-1c0-0.1-0.1-0.3-0.1-0.3l-0.8-3.3c-0.2-0.6-0.5-0.9-0.9-0.9c-0.1,0-0.2,0-0.3,0.1
		c-2,0.6-5,1.5-9,1.5c-3.4,0-5.9-0.6-7.6-1.9c-1.7-1.3-2.6-2.9-2.6-5.9H386c1,0,1.3-0.8,1.3-1.5v-3.1
		C387.3,36.6,386.6,32.5,384.4,29.6z M364.5,41c0.1-2.1,0.1-4,0.5-5.8c0.7-3.2,2.5-4.5,6.8-4.5c3.8,0,5.7,1.1,6.5,4.7
		c0.4,1.7,0.5,3.5,0.5,5.5L364.5,41z"/>
</g>
<g>
	<path class="st0" d="M50.2,0H31.6l3.3,15.7c0.6,2.3,1.7,3.6,4.2,3.6H54c24.9,0,29.6,5.4,29.6,23.7c0,18.2-7,22.7-29.6,22.7h-9.6
		l3.4,15.7c0.5,2.3,1.6,3.6,4.1,3.6h1.8c28.4,0,52.6-4.7,52.6-42C106.4,6.4,86.2,0,50.2,0z"/>
	<path class="st0" d="M19.3,0H0l5.8,28.8c0.6,2.3,1.7,3.6,4.2,3.6h19.3L23.5,3.6C23,1.3,21.9,0,19.3,0z"/>
</g>
</svg>
