<?xml version="1.0" encoding="utf-8"?>
<!-- Generator: Adobe Illustrator 21.0.1, SVG Export Plug-In . SVG Version: 6.00 Build 0)  -->
<svg version="1.1" id="Ebene_1" xmlns="http://www.w3.org/2000/svg" xmlns:xlink="http://www.w3.org/1999/xlink" x="0px" y="0px"
	 width="55.3px" height="54px" viewBox="0 0 55.3 54" style="enable-background:new 0 0 55.3 54;" xml:space="preserve">
<style type="text/css">
	.st0{fill:#ff8700;}
</style>
<g>
	<g>
		<path class="st0" d="M41.4,33c-0.4,0.1-0.7,0.1-1,0.1c-3,0-7.5-10.6-7.5-14.1c0-1.3,0.3-1.7,0.7-2.1c-3.7,0.4-8.2,1.8-9.6,3.5
			c-0.2,0.4-0.4,1.1-0.4,2c0,5.5,5.9,18,10,18C35.5,40.4,38.7,37.2,41.4,33"/>
		<path class="st0" d="M39.5,16.5c3.8,0,7.7,0.6,7.7,2.8c0,4.4-2.8,9.7-4.2,9.7c-2.5,0-5.7-7-5.7-10.6
			C37.3,16.8,37.9,16.5,39.5,16.5"/>
	</g>
	<path class="st0" d="M51.2,0H12.5c-2.3,0-4.2,1.9-4.2,4.2v1.3H5.2C2.3,5.5,0,7.8,0,10.7v2.1C0,15.6,2.3,18,5.2,18h3.1v2.5H5
		c-2.8,0-5,2.3-5,5v2.1c0,2.8,2.3,5,5,5h3.3V36H5.2C2.3,36,0,38.4,0,41.2v2.1c0,2.9,2.3,5.2,5.2,5.2h3.1v1.3c0,2.3,1.9,4.2,4.2,4.2
		h38.7c2.3,0,4.2-1.9,4.2-4.2V4.2C55.3,1.9,53.5,0,51.2,0z M5,28.6c-0.6,0-1-0.5-1-1v-2.1c0-0.6,0.5-1,1-1h6.5c0.6,0,1,0.5,1,1v2.1
		c0,0.6-0.5,1-1,1H5z M12.8,43.3c0,0.6-0.5,1-1,1H5.2c-0.6,0-1-0.5-1-1v-2.1c0-0.6,0.5-1,1-1h6.5c0.6,0,1,0.5,1,1V43.3z M12.8,12.8
		c0,0.6-0.5,1-1,1H5.2c-0.6,0-1-0.5-1-1v-2.1c0-0.6,0.5-1,1-1h6.5c0.6,0,1,0.5,1,1V12.8z M51.2,49.8H18V4.2h33.2V49.8z"/>
</g>
</svg>
