<?xml version="1.0" encoding="utf-8"?>
<!-- Generator: Adobe Illustrator 21.0.1, SVG Export Plug-In . SVG Version: 6.00 Build 0)  -->
<svg version="1.1" id="Ebene_1" xmlns="http://www.w3.org/2000/svg" xmlns:xlink="http://www.w3.org/1999/xlink" x="0px" y="0px"
	 viewBox="0 0 303.05 84.17" style="enable-background:new 0 0 303.05 84.17;" xml:space="preserve">
<style type="text/css">
	.st0{fill:#ff8700;}
</style>
<g>
	<g>
		<polygon points="99.94,28.37 113.57,28.37 113.57,83.56 121.26,83.56 121.26,28.37 134.88,28.37 134.88,21.65 99.94,21.65 		"/>
		<polygon points="158.9,46.67 147.23,21.65 138.74,21.65 154.57,54.81 154.57,83.56 162.53,83.56 162.53,54.81 178.63,21.65
			170.57,21.65 		"/>
		<path d="M247.43,21.03c-14.59,0-18.48,10.08-18.48,30.87c0,21.66,3.89,32.27,18.48,32.27c14.59,0,18.48-10.61,18.48-32.27
			C265.91,31.11,262.02,21.03,247.43,21.03z M247.43,77.72c-7.95,0-10.61-6.38-10.61-25.38c0-19.46,2.66-24.86,10.61-24.86
			s10.61,5.4,10.61,24.86C258.04,71.35,255.39,77.72,247.43,77.72z"/>
		<path d="M295.18,51.11c4.69-1.69,6.82-6.99,6.82-13c0-13.18-5.23-17.08-14.33-17.08c-4.5,0-9.73,1.33-10.7,1.51v6.45
			c2.56-0.53,6.99-1.51,10.88-1.51c4.42,0,6.62,2.83,6.62,9.82c0,3.53-0.34,10.87-7.52,10.87h-6.36v6.46h7.26
			c6.28,0,7.6,4.25,7.6,12.29c0,6.82-2.93,10.64-7.43,10.64c-3.9,0-9.37-0.91-11.5-1.35v6.44c0.81,0.19,7.26,1.51,11.59,1.51
			c9.82,0,14.94-4.94,14.94-18.13C303.05,57.38,300.58,51.46,295.18,51.11z"/>
		<path d="M202.33,21.03c-7.34,0-14.96,0.63-14.96,0.63v61.91h7.7V60.21h7.43c12.56,0,17.16-6.55,17.16-19.99
			C219.66,29.34,215.77,21.03,202.33,21.03z M203.38,53.75h-8.31V27.93c0,0,3.45-0.53,8.31-0.53c6.28,0,8.41,4.59,8.41,13.44
			C211.79,50.48,208.34,53.75,203.38,53.75z"/>
	</g>
	<g>
		<path class="st0" d="M32.94,8.72c0-4.58,1.08-6.1,2.61-7.42C22.46,2.83,6.76,7.63,1.74,13.74C0.66,15.27,0,17.66,0,20.72
			c0,19.41,20.72,63.46,35.33,63.46c6.76,0,18.16-11.11,27.54-26.17c-1.25,0.37-2.24,0.51-3.55,0.51
			C48.63,58.51,32.94,21.15,32.94,8.72z"/>
		<path class="st0" d="M56.05,0c-5.67,0-7.85,1.09-7.85,6.76c0,12.43,11.12,37.3,20.07,37.3c5.01,0,14.83-18.76,14.83-34.25
			C83.1,2.18,69.57,0,56.05,0z"/>
	</g>
</g>
</svg>
