<svg xmlns="http://www.w3.org/2000/svg" viewBox="0 0 185 50"><path d="M4.2 33.4c1 1.1 2.1 2 3.4 2.6 1.3.6 2.8 1 4.3 1 2 0 3.6-.5 4.8-1.5 1.2-1 1.8-2.2 1.8-3.8 0-.8-.1-1.5-.4-2.1-.3-.6-.6-1-1-1.5-.4-.4-.9-.8-1.5-1.1l-1.8-.9-4-1.8c-.6-.2-1.2-.5-1.8-.9-.6-.3-1.2-.8-1.7-1.3S5.3 21 5 20.3s-.5-1.6-.5-2.5c0-1 .2-1.8.6-2.6.4-.8.9-1.5 1.6-2 .7-.6 1.5-1 2.4-1.3.9-.3 2-.5 3.1-.5 1.6 0 3 .3 4.3.9 1.2.6 2.3 1.4 3.1 2.2l-1 1.2c-.8-.8-1.7-1.5-2.7-2-1-.5-2.2-.7-3.6-.7-1.8 0-3.2.4-4.2 1.3-1.1.9-1.6 2-1.6 3.4 0 .8.1 1.4.4 2 .3.5.7 1 1.1 1.4.5.4.9.7 1.5 1 .5.3 1 .5 1.5.7l4 1.8c.7.3 1.5.7 2.1 1.1s1.3.9 1.8 1.4c.5.5.9 1.2 1.2 1.9.3.7.5 1.6.5 2.6s-.2 2-.6 2.8-1 1.6-1.7 2.2c-.7.6-1.6 1.1-2.7 1.5-1 .4-2.2.5-3.5.5-1.9 0-3.6-.4-5.1-1.1-1.5-.7-2.8-1.7-3.8-2.9l1-1.2zM34.6 7.6h1.5L23.9 42.4h-1.5L34.6 7.6zm5.6 4.2h7.2c1.5 0 2.8.1 3.9.4 1.2.3 2.1.7 3 1.3.8.6 1.4 1.3 1.9 2.3.4.9.6 2.1.6 3.4 0 2.6-.8 4.5-2.5 5.8-1.7 1.3-4 1.9-6.9 1.9H42v11.3h-1.8V11.8zM47 25.3c2.7 0 4.7-.5 6-1.4 1.3-1 2-2.5 2-4.7 0-1.1-.2-2-.5-2.8-.3-.7-.8-1.3-1.5-1.8s-1.5-.8-2.5-1c-1-.2-2.2-.3-3.5-.3h-5v11.9h5zm15.6-13.5h1.8v14.6h.1l12.8-14.6h2.2L71 21.6l9.6 16.6h-2.1L69.8 23l-5.4 6.1v9.1h-1.8V11.8zm19.8 13.1c0-2.1.3-4 .8-5.6.6-1.7 1.4-3.1 2.4-4.3 1-1.2 2.3-2.1 3.7-2.7 1.4-.6 3-.9 4.8-.9.9 0 1.7.1 2.4.3.7.2 1.4.4 2 .7.6.3 1.1.6 1.6 1s.9.7 1.2 1.1l-1.1 1.2c-.7-.7-1.5-1.4-2.5-1.9s-2.1-.8-3.6-.8-2.9.3-4.1.8c-1.2.6-2.2 1.4-3.1 2.4-.8 1-1.5 2.3-1.9 3.7-.5 1.5-.7 3.1-.7 5 0 1.8.2 3.5.6 5 .4 1.5 1 2.7 1.9 3.8.8 1 1.8 1.8 3 2.4 1.2.6 2.5.9 4 .9 1.2 0 2.3-.2 3.4-.5s1.9-.8 2.5-1.5v-8.2h-6.3v-1.6h8.1v10.4c-.8.9-1.9 1.6-3.2 2.2-1.3.6-2.9.8-4.6.8-1.7 0-3.2-.3-4.6-1-1.4-.6-2.6-1.6-3.6-2.7-1-1.2-1.8-2.6-2.3-4.3-.5-1.7-.8-3.6-.8-5.7zM117 7.6h1.5l-12.2 34.8h-1.5L117 7.6zm5.6 4.2h7.1c2.7 0 4.8.5 6.4 1.5 1.6 1 2.4 2.6 2.4 4.9 0 1.4-.4 2.6-1.2 3.6-.8 1-2 1.7-3.5 2.1v.2c1.9.3 3.5 1 4.6 2 1.1 1.1 1.7 2.5 1.7 4.3 0 1.3-.2 2.4-.7 3.4-.5 1-1.1 1.8-2 2.4-.9.6-1.9 1.1-3.1 1.4-1.2.3-2.5.5-4 .5h-7.6V11.8zm6.4 11.6c2.7 0 4.7-.4 5.8-1.3 1.2-.9 1.8-2.2 1.8-3.9 0-1.7-.6-2.9-1.9-3.7-1.3-.8-3.1-1.1-5.5-1.1h-4.8v10.1h4.6zm.8 13.3c2.6 0 4.7-.5 6.2-1.5s2.3-2.5 2.3-4.7c0-1.9-.7-3.3-2.2-4.2-1.5-.9-3.6-1.4-6.3-1.4h-5.3v11.8h5.3zm15.9-24.9h1.8v24.8h12.2v1.6h-14V11.8zm18.7 0h6.1c2 0 3.8.3 5.3.9 1.5.6 2.8 1.5 3.7 2.6 1 1.1 1.7 2.5 2.2 4.1.5 1.6.7 3.4.7 5.4s-.2 3.8-.7 5.5c-.5 1.6-1.2 3-2.2 4.2-1 1.2-2.2 2.1-3.7 2.7-1.5.6-3.3.9-5.3.9h-6.2V11.8zm5.9 24.8c1.8 0 3.3-.3 4.6-.9 1.3-.6 2.4-1.4 3.2-2.4s1.4-2.3 1.8-3.7c.4-1.4.6-3 .6-4.7 0-1.7-.2-3.3-.6-4.7-.4-1.4-1-2.6-1.8-3.6s-1.9-1.8-3.2-2.4c-1.3-.6-2.8-.8-4.6-.8h-4.1v23.2h4.1z"/></svg>