<?xml version="1.0" encoding="utf-8"?>
<!-- Generator: Adobe Illustrator 23.1.0, SVG Export Plug-In . SVG Version: 6.00 Build 0)  -->
<svg version="1.1" id="Ebene_1" xmlns="http://www.w3.org/2000/svg" xmlns:xlink="http://www.w3.org/1999/xlink" x="0px" y="0px"
	 viewBox="0 0 280 360" enable-background="new 0 0 280 360" xml:space="preserve">
<path fill="#FF8700" d="M280,0H0c0,0,0,135,0,180c0,112.5,140,180,140,180s140-67.5,140-180C280,135,280,0,280,0L280,0z"/>
<path opacity="0.75" fill="none" stroke="#FFFFFF" stroke-width="4" stroke-miterlimit="10" stroke-dasharray="160,20" enable-background="new    " d="
	M20,18.32v160c0,22.024,6.42,44.024,19.081,65.39c10.548,17.8,25.407,35.232,44.165,51.813c22.42,19.818,44.846,33.506,56.74,40.158
	c12.053-6.755,34.937-20.733,57.468-40.778c18.577-16.528,33.285-33.893,43.715-51.615C253.664,222.057,260,200.199,260,178.32v-160
	C260,18.32,20,18.32,20,18.32z"/>
<path opacity="0.25" fill="#FFFFFF" enable-background="new    " d="M0,0c0,0,0,135,0,180c0,112.5,140,180,140,180V0H0z"/>
<g>
	<path fill="#FFFFFF" d="M155.214,194.547c-4.774,0-6.611,0.916-6.611,5.692c0,10.474,9.371,31.422,16.903,31.422
		c4.222,0,12.494-15.806,12.494-28.849C178,196.383,166.603,194.547,155.214,194.547z"/>
	<path fill="#FFFFFF" d="M135.745,201.892c0-3.855,0.912-5.142,2.201-6.246c-11.022,1.286-24.248,5.332-28.476,10.474
		c-0.914,1.288-1.47,3.307-1.47,5.88c0,16.351,17.452,53.454,29.763,53.454c5.697,0,15.299-9.363,23.199-22.043
		c-1.051,0.31-1.889,0.426-2.988,0.426C148.968,243.837,135.745,212.366,135.745,201.892z"/>
</g>
<g>
	<path fill="#FFFFFF" d="M55,148.935v-57.87h36.087v11.006H68.002v11.628h19.636v10.917H68.002v13.314h23.97v11.006L55,148.935
		L55,148.935z"/>
	<path fill="#FFFFFF" d="M103.47,148.935v-57.87h13.002v46.864h22.819v11.006H103.47z"/>
	<path fill="#FFFFFF" d="M149.906,148.935v-46.864h-15.833V91.065h44.756v11.006h-15.833v46.864H149.906z"/>
	<path fill="#FFFFFF" d="M203.242,150c-3.775,0-7.533-0.696-11.278-2.086c-3.746-1.39-7.092-3.476-10.039-6.258l7.43-8.965
		c2.064,1.775,4.348,3.226,6.855,4.349c2.506,1.125,4.968,1.686,7.386,1.686c2.711,0,4.731-0.502,6.058-1.509
		c1.327-1.005,1.99-2.366,1.99-4.083c0-0.887-0.192-1.656-0.574-2.307c-0.384-0.651-0.944-1.228-1.681-1.731
		c-0.737-0.502-1.622-0.976-2.653-1.42c-1.032-0.444-2.167-0.932-3.405-1.464l-7.518-3.195c-1.475-0.591-2.906-1.361-4.29-2.308
		c-1.386-0.946-2.625-2.055-3.715-3.328c-1.092-1.272-1.961-2.751-2.61-4.438c-0.649-1.686-0.973-3.595-0.973-5.725
		c0-2.366,0.5-4.6,1.504-6.701c1.002-2.1,2.416-3.934,4.245-5.503c1.827-1.567,3.994-2.796,6.501-3.683
		c2.506-0.888,5.263-1.332,8.271-1.332c3.361,0,6.678,0.652,9.951,1.953c3.273,1.302,6.147,3.195,8.624,5.68l-6.634,8.255
		c-1.888-1.478-3.775-2.619-5.661-3.417c-1.888-0.799-3.981-1.198-6.28-1.198c-2.243,0-4.025,0.459-5.352,1.375
		c-1.326,0.918-1.99,2.205-1.99,3.861c0,0.888,0.221,1.643,0.664,2.263c0.442,0.621,1.061,1.185,1.857,1.686
		c0.796,0.504,1.724,0.977,2.786,1.42s2.211,0.932,3.45,1.464l7.431,3.018c3.537,1.42,6.324,3.373,8.358,5.858
		s3.051,5.769,3.051,9.852c0,2.427-0.486,4.72-1.459,6.879c-0.974,2.16-2.388,4.054-4.247,5.681
		c-1.857,1.628-4.143,2.929-6.854,3.905C209.727,149.512,206.661,150,203.242,150z"/>
</g>
</svg>
