<svg id="Ebene_1" xmlns="http://www.w3.org/2000/svg" width="64.4" height="53" viewBox="0 0 64.4 53"><style>.st0{fill:#ff8700}</style><path class="st0" d="M62.1 26.8l-12.8-5.5V9.5c0-1.5-.9-2.9-2.3-3.5L33.7.3c-.5-.2-1-.3-1.5-.3s-1 .1-1.5.3L17.5 6c-1.4.6-2.3 2-2.3 3.5v11.8L2.3 26.8c-1.4.6-2.3 2-2.3 3.5v12.3c0 1.4.8 2.8 2.1 3.4l13.3 6.6c.5.3 1.1.4 1.7.4s1.2-.1 1.7-.4L32 46c.1 0 .1-.1.2-.1.1.1.1.1.2.1l13.3 6.6c.5.3 1.1.4 1.7.4s1.2-.1 1.7-.4L62.3 46c1.3-.6 2.1-2 2.1-3.4V30.3c0-1.5-.9-2.9-2.3-3.5zM17 34.9L5 29.8l12-5.1 12 5.1-12 5.1zm13.3 7.7l-11.4 5.7V38.2l11.4-4.9v9.3zM32.2 15L19.1 9.4l13.1-5.6 13.1 5.6L32.2 15zm1.9 3.3l11.4-4.9v7.9l-11.4 4.9v-7.9zm13.3 16.6l-12-5.1 12-5.1 12 5.1-12 5.1zm13.2 7.7l-11.4 5.7V38.2l11.4-4.9v9.3z"/></svg>