<svg id="Ebene_1" xmlns="http://www.w3.org/2000/svg" width="54.5" height="54.7" viewBox="0 0 54.5 54.7"><style>.st0{fill:#ff8700}</style><path class="st0" d="M18.7 10.5c0 .6-.4.8-1 .8s-.8-.4-.8-1V.8c0-.6.4-.8 1-.8s.8.4.8 1v9.5zm4.4 2.5c-.2.2-.4.2-.6.2-.2 0-.4 0-.6-.2-.4-.4-.4-1 0-1.3l7.6-7.3c.4-.4 1-.4 1.3 0 .4.4.4 1 0 1.3L23.1 13zm10.5 5h-9.4c-.6 0-.8-.4-.8-1s.4-.8 1-.8h9.4c.6 0 .8.4.8 1-.2.4-.6.8-1 .8zm-17.7 6.6c0-.6.4-.8 1-.8s.8.4.8 1v9.4c0 .6-.4.8-1 .8s-.8-.4-.8-1v-9.4zM11.8 22c.2-.2.4-.2.6-.2s.4 0 .6.2c.4.4.4 1 0 1.3l-7.6 7.3c-.4.4-1 .4-1.3 0-.4-.4-.4-1 0-1.3l7.7-7.3zM1 17h9.4c.6 0 .8.4.8 1s-.4.8-1 .8H.8c-.6 0-.8-.4-.8-1s.6-.8 1-.8zm11.8-5.2c.2.2.2.4.2.6 0 .2 0 .4-.2.6-.4.4-1 .4-1.3 0L4.2 5.5c-.4-.4-.4-1 0-1.3.4-.4 1-.4 1.3 0l7.3 7.6zM21.4 22c-.2.2-.2.4-.2.6l11.3 29.2c0 .2.2.4.6.4.2 0 .4-.2.6-.4l3.6-8.6 11.1 11.1c.4.4.8.4 1.3 0l4.4-4.4c.4-.4.4-.8 0-1.3L43 37.6l8.6-3.6c.2 0 .4-.2.4-.6 0-.2-.2-.4-.4-.6L22 22c-.2-.2-.4 0-.6 0z"/></svg>