<!-- Copyright © 2015 MODULUS Sp. z o. o. / FUTURAMO™ --><svg xmlns="http://www.w3.org/2000/svg" x="0px" y="0px" width="64px" height="64px" viewBox="0 0 32 32"><path  fill="#666666" d="M6,26h10.999v1H6V26z M1,7h22v10h1V6H7V2h21v15h1V1H6v5H0v26h19v-1H1V7z M5.001,23H4v1h1.001V23z M5.001,17 H4v1h1.001V17z M5.001,14H4v1h1.001V14z M5.001,20H4v1h1.001V20z M5.001,11H4v1h1.001V11z M19.999,14H6v1h13.999V14z M19.999,11H6v1 h13.999V11z M19.999,17H6v1h13.999V17z M16.999,23H6v1h10.999V23z M4,27h1.001v-1H4V27z M16.999,20H6v1h10.999V20z M25,29h1v-5h-1 V29z M25,23h1v-1h-1V23z M32,25.5c0,3.59-2.91,6.5-6.5,6.5S19,29.09,19,25.5s2.91-6.5,6.5-6.5S32,21.91,32,25.5z M31,25.5 c0-3.033-2.467-5.5-5.5-5.5S20,22.467,20,25.5s2.467,5.5,5.5,5.5S31,28.533,31,25.5z"></path></svg>