<svg xmlns="http://www.w3.org/2000/svg" fill-rule="evenodd" stroke-miterlimit="1.414" viewBox="0 0 64 64" width="64" height="64">
  <path fill="#ff8700" fill-rule="nonzero" d="M46.37 42.73c-.84.247-1.51.34-2.39.34-7.205 0-17.784-25.177-17.784-33.556 0-3.085.73-4.114 1.76-4.997-8.817 1.03-19.397 4.265-22.78 8.378C4.446 13.925 4 15.54 4 17.6c0 13.08 13.962 42.76 23.81 42.76 4.558 0 12.24-7.49 18.56-17.633m-4.6-39.09c9.113 0 18.23 1.47 18.23 6.613 0 10.434-6.617 23.08-9.995 23.08-6.027 0-13.522-16.76-13.522-25.14 0-3.82 1.47-4.552 5.288-4.552"/>
</svg>
