<svg id="Ebene_1" xmlns="http://www.w3.org/2000/svg" width="61.3" height="53" viewBox="0 0 61.3 53"><style>.st0{fill:#ff8700}</style><path class="st0" d="M60.7 41.4L49.6 52.6c-.3.3-.7.4-1.1.4s-.8-.1-1.1-.5L36.2 41.4c-.5-.4-.6-1.1-.3-1.7.2-.6.8-1 1.5-1h6.4V27.6c0-.9.7-1.6 1.6-1.6h6.4c.9 0 1.6.7 1.6 1.6v11.1h6.4c.6 0 1.2.4 1.5 1 0 .6-.1 1.3-.6 1.7z"/><path class="st0" d="M25.6 13.4h24.5c1.8 0 3.3 1.5 3.3 3.3v3.2c1.5.1 3 .1 4.5.2v-3.4c0-4.3-3.5-7.8-7.8-7.8H26.7V7.8c0-4.3-3.5-7.8-7.8-7.8H7.7C3.5 0 0 3.5 0 7.8v33.4C0 45.5 3.5 49 7.7 49h25.2l-4.5-4.5H7.7c-1.8 0-3.3-1.5-3.3-3.3V7.8c0-1.8 1.5-3.3 3.3-3.3h11.1c1.8 0 3.3 1.5 3.3 3.3V10c.1 1.9 1.6 3.4 3.5 3.4z"/><path class="st0" d="M32.3 31c-.3.1-.4.1-.7.1-2.1 0-5.2-7.3-5.2-9.7 0-.9.2-1.2.5-1.4-2.5.3-5.6 1.2-6.6 2.4-.2.3-.3.7-.3 1.4 0 3.8 4 12.3 6.9 12.3 1.4 0 3.6-2.2 5.4-5.1M31 19.7c2.6 0 5.2.4 5.2 1.9 0 3-1.9 6.6-2.9 6.6-1.7 0-3.9-4.8-3.9-7.3.1-1 .5-1.2 1.6-1.2"/></svg>