<?xml version="1.0" encoding="utf-8"?><svg class="fontawesome" style="display: none;" xmlns="http://www.w3.org/2000/svg" xmlns:xlink="http://www.w3.org/1999/xlink"><symbol viewBox="0 0 320 512" id="angle-double-left" xmlns="http://www.w3.org/2000/svg"><path d="M153.1 247.5l117.8-116c4.7-4.7 12.3-4.7 17 0l7.1 7.1c4.7 4.7 4.7 12.3 0 17L192.7 256l102.2 100.4c4.7 4.7 4.7 12.3 0 17l-7.1 7.1c-4.7 4.7-12.3 4.7-17 0L153 264.5c-4.6-4.7-4.6-12.3.1-17zm-128 17l117.8 116c4.7 4.7 12.3 4.7 17 0l7.1-7.1c4.7-4.7 4.7-12.3 0-17L64.7 256l102.2-100.4c4.7-4.7 4.7-12.3 0-17l-7.1-7.1c-4.7-4.7-12.3-4.7-17 0L25 247.5c-4.6 4.7-4.6 12.3.1 17z"/></symbol><symbol viewBox="0 0 320 512" id="angle-double-right" xmlns="http://www.w3.org/2000/svg"><path d="M166.9 264.5l-117.8 116c-4.7 4.7-12.3 4.7-17 0l-7.1-7.1c-4.7-4.7-4.7-12.3 0-17L127.3 256 25.1 155.6c-4.7-4.7-4.7-12.3 0-17l7.1-7.1c4.7-4.7 12.3-4.7 17 0l117.8 116c4.6 4.7 4.6 12.3-.1 17zm128-17l-117.8-116c-4.7-4.7-12.3-4.7-17 0l-7.1 7.1c-4.7 4.7-4.7 12.3 0 17L255.3 256 153.1 356.4c-4.7 4.7-4.7 12.3 0 17l7.1 7.1c4.7 4.7 12.3 4.7 17 0l117.8-116c4.6-4.7 4.6-12.3-.1-17z"/></symbol><symbol viewBox="0 0 448 512" id="arrow-left" xmlns="http://www.w3.org/2000/svg"><path d="M231.536 475.535l7.071-7.07c4.686-4.686 4.686-12.284 0-16.971L60.113 273H436c6.627 0 12-5.373 12-12v-10c0-6.627-5.373-12-12-12H60.113L238.607 60.506c4.686-4.686 4.686-12.284 0-16.971l-7.071-7.07c-4.686-4.686-12.284-4.686-16.97 0L3.515 247.515c-4.686 4.686-4.686 12.284 0 16.971l211.051 211.05c4.686 4.686 12.284 4.686 16.97-.001z"/></symbol><symbol viewBox="0 0 448 512" id="arrow-right" xmlns="http://www.w3.org/2000/svg"><path d="M216.464 36.465l-7.071 7.07c-4.686 4.686-4.686 12.284 0 16.971L387.887 239H12c-6.627 0-12 5.373-12 12v10c0 6.627 5.373 12 12 12h375.887L209.393 451.494c-4.686 4.686-4.686 12.284 0 16.971l7.071 7.07c4.686 4.686 12.284 4.686 16.97 0l211.051-211.05c4.686-4.686 4.686-12.284 0-16.971L233.434 36.465c-4.686-4.687-12.284-4.687-16.97 0z"/></symbol><symbol viewBox="0 0 448 512" id="building" xmlns="http://www.w3.org/2000/svg"><path d="M192 107v40c0 6.627-5.373 12-12 12h-40c-6.627 0-12-5.373-12-12v-40c0-6.627 5.373-12 12-12h40c6.627 0 12 5.373 12 12zm116-12h-40c-6.627 0-12 5.373-12 12v40c0 6.627 5.373 12 12 12h40c6.627 0 12-5.373 12-12v-40c0-6.627-5.373-12-12-12zm-128 96h-40c-6.627 0-12 5.373-12 12v40c0 6.627 5.373 12 12 12h40c6.627 0 12-5.373 12-12v-40c0-6.627-5.373-12-12-12zm128 0h-40c-6.627 0-12 5.373-12 12v40c0 6.627 5.373 12 12 12h40c6.627 0 12-5.373 12-12v-40c0-6.627-5.373-12-12-12zm-128 96h-40c-6.627 0-12 5.373-12 12v40c0 6.627 5.373 12 12 12h40c6.627 0 12-5.373 12-12v-40c0-6.627-5.373-12-12-12zm128 0h-40c-6.627 0-12 5.373-12 12v40c0 6.627 5.373 12 12 12h40c6.627 0 12-5.373 12-12v-40c0-6.627-5.373-12-12-12zm140 205v20H0v-20c0-6.627 5.373-12 12-12h20V24C32 10.745 42.745 0 56 0h336c13.255 0 24 10.745 24 24v456h20c6.627 0 12 5.373 12 12zm-64-12V32H64v448h128v-85c0-6.627 5.373-12 12-12h40c6.627 0 12 5.373 12 12v85h128z"/></symbol><symbol viewBox="0 0 576 512" id="bullhorn" xmlns="http://www.w3.org/2000/svg"><path d="M544 184.88V32c0-8.74-6.98-32-31.99-32H512c-7.12 0-14.19 2.38-19.98 7.02l-85.03 68.03C364.28 109.19 310.66 128 256 128H64c-35.35 0-64 28.65-64 64v96c0 35.35 28.65 64 64 64l-.48 32c0 39.77 9.26 77.35 25.56 110.94 5.19 10.69 16.52 17.06 28.4 17.06h106.28c26.05 0 41.69-29.84 25.9-50.56-16.4-21.52-26.15-48.36-26.15-77.44 0-11.11 1.62-21.79 4.41-32H256c54.66 0 108.28 18.81 150.98 52.95l85.03 68.03a32.023 32.023 0 0019.98 7.02c24.92 0 32-22.78 32-32V295.12c19.05-11.09 32-31.49 32-55.12.01-23.63-12.94-44.03-31.99-55.12zM223.76 480l-105.89-.03c-14.83-30.56-22.35-62.19-22.36-95.49l.48-32L96 352h99.33c-2.31 10.7-3.81 21.43-3.81 32 0 35.29 11.3 68.78 32.24 96zM64 320c-17.64 0-32-14.36-32-32v-96c0-17.64 14.36-32 32-32h192v160H64zm448.05 126.93c-.04.25-.13.58-.25.9l-84.83-67.87C386.99 348 338.54 328.14 288 322.13V157.87c50.54-6.01 98.99-25.87 138.98-57.84l84.87-67.9c.03.03.06.05.08.05.04 0 .06-.05.07-.17l.05 414.92z"/></symbol><symbol viewBox="0 0 448 512" id="calendar" xmlns="http://www.w3.org/2000/svg"><path d="M400 64h-48V12c0-6.627-5.373-12-12-12h-8c-6.627 0-12 5.373-12 12v52H128V12c0-6.627-5.373-12-12-12h-8c-6.627 0-12 5.373-12 12v52H48C21.49 64 0 85.49 0 112v352c0 26.51 21.49 48 48 48h352c26.51 0 48-21.49 48-48V112c0-26.51-21.49-48-48-48zM48 96h352c8.822 0 16 7.178 16 16v48H32v-48c0-8.822 7.178-16 16-16zm352 384H48c-8.822 0-16-7.178-16-16V192h384v272c0 8.822-7.178 16-16 16z"/></symbol><symbol viewBox="0 0 512 512" id="certificate" xmlns="http://www.w3.org/2000/svg"><path d="M495.768 272.292l-16.72-16.363 16.719-16.362c30.04-28.786 16.251-79.537-23.83-89.365l-22.768-5.811 6.464-22.698c11.232-39.997-26.115-76.468-65.449-65.451l-22.672 6.461-5.809-22.778C351.926.052 300.89-13.786 272.299 16.142L256 32.934l-16.301-16.791c-28.323-29.647-79.535-16.514-89.405 23.793l-5.807 22.768-22.672-6.461c-39.14-10.992-76.677 25.224-65.449 65.45l6.464 22.698-22.767 5.811c-40.081 9.827-53.87 60.579-23.831 89.365l16.72 16.363-16.719 16.362c-30.04 28.786-16.251 79.537 23.83 89.365l22.768 5.811-6.464 22.698c-11.221 40.203 26.255 76.429 65.449 65.45l22.672-6.461 5.807 22.767c9.93 40.578 60.865 53.609 89.366 23.836L256 479.05l16.254 16.62c28.257 29.9 79.554 16.68 89.452-23.746l5.807-22.767 22.672 6.461c39.472 11.086 76.598-25.509 65.449-65.45l-6.464-22.698 22.767-5.811c40.082-9.829 53.87-60.581 23.831-89.367zm-31.567 58.313l-54.819 13.991 15.453 54.263c4.366 15.605-10.346 30.332-25.953 25.962l-54.245-15.458L330.65 464.2c-3.796 15.884-24.347 21.136-35.285 9.334L256 433.284l-39.366 40.251c-11.051 11.681-31.4 6.919-35.285-9.334l-13.986-54.837-54.245 15.458c-15.603 4.368-30.32-10.354-25.953-25.962l15.453-54.263-54.819-13.991c-15.733-3.762-21.326-23.942-9.331-35.297l40.237-39.379-40.237-39.379c-11.989-11.35-6.407-31.532 9.331-35.296l54.819-13.991L87.165 113c-4.366-15.605 10.346-30.332 25.953-25.962l54.245 15.458 13.986-54.837c3.743-15.664 24.233-21.016 35.285-9.334L256 78.873l39.366-40.548c11.179-11.816 31.583-6.152 35.285 9.334l13.986 54.837 54.245-15.458c15.603-4.368 30.32 10.354 25.953 25.962l-15.453 54.263 54.819 13.991c15.733 3.762 21.326 23.942 9.331 35.296l-40.237 39.379 40.237 39.379c11.989 11.351 6.407 31.533-9.331 35.297z"/></symbol><symbol viewBox="0 0 448 512" id="check" xmlns="http://www.w3.org/2000/svg"><path d="M413.505 91.951L133.49 371.966l-98.995-98.995c-4.686-4.686-12.284-4.686-16.971 0L6.211 284.284c-4.686 4.686-4.686 12.284 0 16.971l118.794 118.794c4.686 4.686 12.284 4.686 16.971 0l299.813-299.813c4.686-4.686 4.686-12.284 0-16.971l-11.314-11.314c-4.686-4.686-12.284-4.686-16.97 0z"/></symbol><symbol viewBox="0 0 448 512" id="chevron-down" xmlns="http://www.w3.org/2000/svg"><path d="M443.5 162.6l-7.1-7.1c-4.7-4.7-12.3-4.7-17 0L224 351 28.5 155.5c-4.7-4.7-12.3-4.7-17 0l-7.1 7.1c-4.7 4.7-4.7 12.3 0 17l211 211.1c4.7 4.7 12.3 4.7 17 0l211-211.1c4.8-4.7 4.8-12.3.1-17z"/></symbol><symbol viewBox="0 0 448 512" id="chevron-up" xmlns="http://www.w3.org/2000/svg"><path d="M4.465 366.475l7.07 7.071c4.686 4.686 12.284 4.686 16.971 0L224 178.053l195.494 195.493c4.686 4.686 12.284 4.686 16.971 0l7.07-7.071c4.686-4.686 4.686-12.284 0-16.97l-211.05-211.051c-4.686-4.686-12.284-4.686-16.971 0L4.465 349.505c-4.687 4.686-4.687 12.284 0 16.97z"/></symbol><symbol viewBox="0 0 512 512" id="circle" xmlns="http://www.w3.org/2000/svg"><path d="M256 8C119 8 8 119 8 256s111 248 248 248 248-111 248-248S393 8 256 8zm216 248c0 118.7-96.1 216-216 216-118.7 0-216-96.1-216-216 0-118.7 96.1-216 216-216 118.7 0 216 96.1 216 216z"/></symbol><symbol viewBox="0 0 512 512" id="circle-notch" xmlns="http://www.w3.org/2000/svg"><path d="M288 24.103v8.169a11.995 11.995 0 009.698 11.768C396.638 63.425 472 150.461 472 256c0 118.663-96.055 216-216 216-118.663 0-216-96.055-216-216 0-104.534 74.546-192.509 174.297-211.978A11.993 11.993 0 00224 32.253v-8.147c0-7.523-6.845-13.193-14.237-11.798C94.472 34.048 7.364 135.575 8.004 257.332c.72 137.052 111.477 246.956 248.531 246.667C393.255 503.711 504 392.789 504 256c0-121.187-86.924-222.067-201.824-243.704C294.807 10.908 288 16.604 288 24.103z"/></symbol><symbol viewBox="0 0 512 512" id="clock" xmlns="http://www.w3.org/2000/svg"><path d="M256 8C119 8 8 119 8 256s111 248 248 248 248-111 248-248S393 8 256 8zm216 248c0 118.7-96.1 216-216 216-118.7 0-216-96.1-216-216 0-118.7 96.1-216 216-216 118.7 0 216 96.1 216 216zm-148.9 88.3l-81.2-59c-3.1-2.3-4.9-5.9-4.9-9.7V116c0-6.6 5.4-12 12-12h14c6.6 0 12 5.4 12 12v146.3l70.5 51.3c5.4 3.9 6.5 11.4 2.6 16.8l-8.2 11.3c-3.9 5.3-11.4 6.5-16.8 2.6z"/></symbol><symbol viewBox="0 0 640 512" id="cloud-upload" xmlns="http://www.w3.org/2000/svg"><path d="M312.5 168.5c-4.7-4.7-12.3-4.7-17 0l-98.3 98.3c-4.7 4.7-4.7 12.3 0 17l5.7 5.7c4.7 4.7 12.3 4.7 17 0l68.2-68.2V372c0 6.6 5.4 12 12 12h8c6.6 0 12-5.4 12-12V221.3l68.2 68.2c4.7 4.7 12.3 4.7 17 0l5.7-5.7c4.7-4.7 4.7-12.3 0-17l-98.5-98.3zm259.2 70.3c2.8-9.9 4.3-20.2 4.3-30.8 0-61.9-50.1-112-112-112-16.7 0-32.9 3.6-48 10.8-31.6-45-84.3-74.8-144-74.8-94.4 0-171.7 74.5-175.8 168.2C39.2 220.2 0 274.3 0 336c0 79.6 64.4 144 144 144h368c70.7 0 128-57.2 128-128 0-47-25.8-90.8-68.3-113.2zM512 448H144c-61.9 0-112-50.1-112-112 0-56.8 42.2-103.7 97-111-.7-5.6-1-11.3-1-17 0-79.5 64.5-144 144-144 60.3 0 111.9 37 133.4 89.6C420 137.9 440.8 128 464 128c44.2 0 80 35.8 80 80 0 18.5-6.3 35.6-16.9 49.2C573 264.4 608 304.1 608 352c0 53-43 96-96 96z"/></symbol><symbol viewBox="0 0 512 512" id="cubes" xmlns="http://www.w3.org/2000/svg"><path d="M488.6 256.7L388 219V107.9c0-15-9.3-28.4-23.4-33.7l-96-36c-8.1-3.1-17.1-3.1-25.3 0l-96 36c-14.1 5.3-23.4 18.7-23.4 33.7V219L23.4 256.7C9.3 262 0 275.4 0 290.4v101.3c0 13.6 7.7 26.1 19.9 32.2l96 48c10.1 5.1 22.1 5.1 32.2 0L256 418l107.9 54c10.1 5.1 22.1 5.1 32.2 0l96-48c12.2-6.1 19.9-18.6 19.9-32.2V290.4c0-15-9.3-28.4-23.4-33.7zM16.5 403.8V295.1l107.2 46.5v115.8zm231 0l-107.2 53.6V341.6l107.2-46.5zm0-126.7l-115.5 50-115.5-50v-.2L131 234l107.6 39.6 8.9 3.3zm.3-19.7L195 239.6l-54.5-20.4V112.5L247.8 159zM140.5 94.5v-.1L256 51l115.5 43.3v.2l-115.5 50zM264.2 159l107.2-46.5v106.7L317 239.6l-52.8 17.8zm107.6 298.4l-107.2-53.6V295.1l107.2 46.5zm123.7-53.6l-107.2 53.6V341.6l107.2-46.5zm0-126.7l-115.5 50L264.5 277v-.2l8.9-3.3L381 234l114.5 42.9z"/></symbol><symbol viewBox="0 0 576 512" id="exclamation-triangle" xmlns="http://www.w3.org/2000/svg"><path d="M270.2 160h35.5c3.4 0 6.1 2.8 6 6.2l-7.5 196c-.1 3.2-2.8 5.8-6 5.8h-20.5c-3.2 0-5.9-2.5-6-5.8l-7.5-196c-.1-3.4 2.6-6.2 6-6.2zM288 388c-15.5 0-28 12.5-28 28s12.5 28 28 28 28-12.5 28-28-12.5-28-28-28zm281.5 52L329.6 24c-18.4-32-64.7-32-83.2 0L6.5 440c-18.4 31.9 4.6 72 41.6 72H528c36.8 0 60-40 41.5-72zM528 480H48c-12.3 0-20-13.3-13.9-24l240-416c6.1-10.6 21.6-10.7 27.7 0l240 416c6.2 10.6-1.5 24-13.8 24z"/></symbol><symbol viewBox="0 0 576 512" id="eye" xmlns="http://www.w3.org/2000/svg"><path d="M288 288a64 64 0 000-128c-1 0-1.88.24-2.85.29a47.5 47.5 0 01-60.86 60.86c0 1-.29 1.88-.29 2.85a64 64 0 0064 64zm284.52-46.6C518.29 135.59 410.93 64 288 64S57.68 135.64 3.48 241.41a32.35 32.35 0 000 29.19C57.71 376.41 165.07 448 288 448s230.32-71.64 284.52-177.41a32.35 32.35 0 000-29.19zM288 96a128 128 0 11-128 128A128.14 128.14 0 01288 96zm0 320c-107.36 0-205.46-61.31-256-160a294.78 294.78 0 01129.78-129.33C140.91 153.69 128 187.17 128 224a160 160 0 00320 0c0-36.83-12.91-70.31-33.78-97.33A294.78 294.78 0 01544 256c-50.53 98.69-148.64 160-256 160z"/></symbol><symbol viewBox="0 0 320 512" id="facebook-f" xmlns="http://www.w3.org/2000/svg"><path d="M279.14 288l14.22-92.66h-88.91v-60.13c0-25.35 12.42-50.06 52.24-50.06h40.42V6.26S260.43 0 225.36 0c-73.22 0-121.08 44.38-121.08 124.72v70.62H22.89V288h81.39v224h100.17V288z"/></symbol><symbol viewBox="0 0 384 512" id="file-chart-line" xmlns="http://www.w3.org/2000/svg"><path d="M136 320h-16c-4.4 0-8 3.6-8 8v96c0 4.4 3.6 8 8 8h16c4.4 0 8-3.6 8-8v-96c0-4.4-3.6-8-8-8zm64-96h-16c-4.4 0-8 3.6-8 8v192c0 4.4 3.6 8 8 8h16c4.4 0 8-3.6 8-8V232c0-4.4-3.6-8-8-8zm40 72v128c0 4.4 3.6 8 8 8h16c4.4 0 8-3.6 8-8V296c0-4.4-3.6-8-8-8h-16c-4.4 0-8 3.6-8 8zM369.9 97.98L286.02 14.1c-9-9-21.2-14.1-33.89-14.1H47.99C21.5.1 0 21.6 0 48.09v415.92C0 490.5 21.5 512 47.99 512h288.02c26.49 0 47.99-21.5 47.99-47.99V131.97c0-12.69-5.1-24.99-14.1-33.99zM256.03 32.59c2.8.7 5.3 2.1 7.4 4.2l83.88 83.88c2.1 2.1 3.5 4.6 4.2 7.4h-95.48V32.59zm95.98 431.42c0 8.8-7.2 16-16 16H47.99c-8.8 0-16-7.2-16-16V48.09c0-8.8 7.2-16.09 16-16.09h176.04v104.07c0 13.3 10.7 23.93 24 23.93h103.98v304.01z"/></symbol><symbol viewBox="0 0 384 512" id="file-contract" xmlns="http://www.w3.org/2000/svg"><path d="M196.66 363.33l-13.88-41.62c-3.28-9.81-12.44-16.41-22.78-16.41s-19.5 6.59-22.78 16.41L119 376.36c-1.5 4.58-5.78 7.64-10.59 7.64H96c-8.84 0-16 7.16-16 16s7.16 16 16 16h12.41c18.62 0 35.09-11.88 40.97-29.53L160 354.58l16.81 50.48a15.994 15.994 0 0014.06 10.89c.38.03.75.05 1.12.05 6.03 0 11.59-3.41 14.31-8.86l7.66-15.33c2.78-5.59 7.94-6.19 10.03-6.19s7.25.59 10.19 6.53c7.38 14.7 22.19 23.84 38.62 23.84H288c8.84 0 16-7.16 16-16s-7.16-16-16-16h-15.19c-4.28 0-8.12-2.38-10.16-6.5-11.96-23.85-46.24-30.33-65.99-14.16zM72 96h112c4.42 0 8-3.58 8-8V72c0-4.42-3.58-8-8-8H72c-4.42 0-8 3.58-8 8v16c0 4.42 3.58 8 8 8zm120 56v-16c0-4.42-3.58-8-8-8H72c-4.42 0-8 3.58-8 8v16c0 4.42 3.58 8 8 8h112c4.42 0 8-3.58 8-8zm177.9-54.02L286.02 14.1c-9-9-21.2-14.1-33.89-14.1H47.99C21.5.1 0 21.6 0 48.09v415.92C0 490.5 21.5 512 47.99 512h288.02c26.49 0 47.99-21.5 47.99-47.99V131.97c0-12.69-5.1-24.99-14.1-33.99zM256.03 32.59c2.8.7 5.3 2.1 7.4 4.2l83.88 83.88c2.1 2.1 3.5 4.6 4.2 7.4h-95.48V32.59zm95.98 431.42c0 8.8-7.2 16-16 16H47.99c-8.8 0-16-7.2-16-16V48.09c0-8.8 7.2-16.09 16-16.09h176.04v104.07c0 13.3 10.7 23.93 24 23.93h103.98v304.01z"/></symbol><symbol viewBox="0 0 384 512" id="file-download" xmlns="http://www.w3.org/2000/svg"><path d="M369.9 97.98L286.02 14.1c-9-9-21.2-14.1-33.89-14.1H47.99C21.5.1 0 21.6 0 48.09v415.92C0 490.5 21.5 512 47.99 512h288.02c26.49 0 47.99-21.5 47.99-47.99V131.97c0-12.69-5.1-24.99-14.1-33.99zM256.03 32.59c2.8.7 5.3 2.1 7.4 4.2l83.88 83.88c2.1 2.1 3.5 4.6 4.2 7.4h-95.48V32.59zm95.98 431.42c0 8.8-7.2 16-16 16H47.99c-8.8 0-16-7.2-16-16V48.09c0-8.8 7.2-16.09 16-16.09h176.04v104.07c0 13.3 10.7 23.93 24 23.93h103.98v304.01zM208 216c0-4.42-3.58-8-8-8h-16c-4.42 0-8 3.58-8 8v88.02h-52.66c-11 0-20.59 6.41-25 16.72-4.5 10.52-2.38 22.62 5.44 30.81l68.12 71.78c5.34 5.59 12.47 8.69 20.09 8.69s14.75-3.09 20.09-8.7l68.12-71.75c7.81-8.2 9.94-20.31 5.44-30.83-4.41-10.31-14-16.72-25-16.72H208V216zm42.84 120.02l-58.84 62-58.84-62h117.68z"/></symbol><symbol viewBox="0 0 384 512" id="file-pdf" xmlns="http://www.w3.org/2000/svg"><path d="M369.9 97.9L286 14C277 5 264.8-.1 252.1-.1H48C21.5 0 0 21.5 0 48v416c0 26.5 21.5 48 48 48h288c26.5 0 48-21.5 48-48V131.9c0-12.7-5.1-25-14.1-34zm-22.6 22.7c2.1 2.1 3.5 4.6 4.2 7.4H256V32.5c2.8.7 5.3 2.1 7.4 4.2l83.9 83.9zM336 480H48c-8.8 0-16-7.2-16-16V48c0-8.8 7.2-16 16-16h176v104c0 13.3 10.7 24 24 24h104v304c0 8.8-7.2 16-16 16zm-22-171.2c-13.5-13.3-55-9.2-73.7-6.7-21.2-12.8-35.2-30.4-45.1-56.6 4.3-18 12-47.2 6.4-64.9-4.4-28.1-39.7-24.7-44.6-6.8-5 18.3-.3 44.4 8.4 77.8-11.9 28.4-29.7 66.9-42.1 88.6-20.8 10.7-54.1 29.3-58.8 52.4-3.5 16.8 22.9 39.4 53.1 6.4 9.1-9.9 19.3-24.8 31.3-45.5 26.7-8.8 56.1-19.8 82-24 21.9 12 47.6 19.9 64.6 19.9 27.7.1 28.9-30.2 18.5-40.6zm-229.2 89c5.9-15.9 28.6-34.4 35.5-40.8-22.1 35.3-35.5 41.5-35.5 40.8zM180 175.5c8.7 0 7.8 37.5 2.1 47.6-5.2-16.3-5-47.6-2.1-47.6zm-28.4 159.3c11.3-19.8 21-43.2 28.8-63.7 9.7 17.7 22.1 31.7 35.1 41.5-24.3 4.7-45.4 15.1-63.9 22.2zm153.4-5.9s-5.8 7-43.5-9.1c41-3 47.7 6.4 43.5 9.1z"/></symbol><symbol viewBox="0 0 512 512" id="filter" xmlns="http://www.w3.org/2000/svg"><path d="M479.968 0H32.038C3.613 0-10.729 34.487 9.41 54.627L192 237.255V424a31.996 31.996 0 0010.928 24.082l64 55.983c20.438 17.883 53.072 3.68 53.072-24.082V237.255L502.595 54.627C522.695 34.528 508.45 0 479.968 0zM288 224v256l-64-56V224L32 32h448L288 224z"/></symbol><symbol viewBox="0 0 512 512" id="flag" xmlns="http://www.w3.org/2000/svg"><path d="M344.348 74.667C287.742 74.667 242.446 40 172.522 40c-28.487 0-53.675 5.322-76.965 14.449C99.553 24.713 75.808-1.127 46.071.038 21.532.999 1.433 20.75.076 45.271-1.146 67.34 12.553 86.382 32 93.258V500c0 6.627 5.373 12 12 12h8c6.627 0 12-5.373 12-12V378.398c31.423-14.539 72.066-29.064 135.652-29.064 56.606 0 101.902 34.667 171.826 34.667 51.31 0 91.933-17.238 130.008-42.953 6.589-4.45 10.514-11.909 10.514-19.86V59.521c0-17.549-18.206-29.152-34.122-21.76-36.78 17.084-86.263 36.906-133.53 36.906zM48 28c11.028 0 20 8.972 20 20s-8.972 20-20 20-20-8.972-20-20 8.972-20 20-20zm432 289.333C456.883 334.03 415.452 352 371.478 352c-63.615 0-108.247-34.667-171.826-34.667-46.016 0-102.279 10.186-135.652 26V106.667C87.117 89.971 128.548 72 172.522 72c63.615 0 108.247 34.667 171.826 34.667 45.92 0 102.217-18.813 135.652-34.667v245.333z"/></symbol><symbol viewBox="0 0 288 512" id="genderless" xmlns="http://www.w3.org/2000/svg"><path d="M144 144c61.9 0 112 50 112 112 0 61.9-50 112-112 112-61.9 0-112-50-112-112 0-61.9 50-112 112-112m0-32C64.5 112 0 176.5 0 256s64.5 144 144 144 144-64.5 144-144-64.5-144-144-144z"/></symbol><symbol viewBox="0 0 496 512" id="globe" xmlns="http://www.w3.org/2000/svg"><path d="M248 8C111 8 0 119 0 256s111 248 248 248 248-111 248-248S385 8 248 8zm193.2 152h-82.5c-9-44.4-24.1-82.2-43.2-109.1 55 18.2 100.2 57.9 125.7 109.1zM336 256c0 22.9-1.6 44.2-4.3 64H164.3c-2.7-19.8-4.3-41.1-4.3-64s1.6-44.2 4.3-64h167.4c2.7 19.8 4.3 41.1 4.3 64zM248 40c26.9 0 61.4 44.1 78.1 120H169.9C186.6 84.1 221.1 40 248 40zm-67.5 10.9c-19 26.8-34.2 64.6-43.2 109.1H54.8c25.5-51.2 70.7-90.9 125.7-109.1zM32 256c0-22.3 3.4-43.8 9.7-64h90.5c-2.6 20.5-4.2 41.8-4.2 64s1.5 43.5 4.2 64H41.7c-6.3-20.2-9.7-41.7-9.7-64zm22.8 96h82.5c9 44.4 24.1 82.2 43.2 109.1-55-18.2-100.2-57.9-125.7-109.1zM248 472c-26.9 0-61.4-44.1-78.1-120h156.2c-16.7 75.9-51.2 120-78.1 120zm67.5-10.9c19-26.8 34.2-64.6 43.2-109.1h82.5c-25.5 51.2-70.7 90.9-125.7 109.1zM363.8 320c2.6-20.5 4.2-41.8 4.2-64s-1.5-43.5-4.2-64h90.5c6.3 20.2 9.7 41.7 9.7 64s-3.4 43.8-9.7 64h-90.5z"/></symbol><symbol viewBox="0 0 576 512" id="images" xmlns="http://www.w3.org/2000/svg"><path d="M528 32H112c-26.51 0-48 21.49-48 48v16H48c-26.51 0-48 21.49-48 48v288c0 26.51 21.49 48 48 48h416c26.51 0 48-21.49 48-48v-16h16c26.51 0 48-21.49 48-48V80c0-26.51-21.49-48-48-48zm-48 400c0 8.822-7.178 16-16 16H48c-8.822 0-16-7.178-16-16V144c0-8.822 7.178-16 16-16h16v240c0 26.51 21.49 48 48 48h368v16zm64-64c0 8.822-7.178 16-16 16H112c-8.822 0-16-7.178-16-16V80c0-8.822 7.178-16 16-16h416c8.822 0 16 7.178 16 16v288zM176 200c30.928 0 56-25.072 56-56s-25.072-56-56-56-56 25.072-56 56 25.072 56 56 56zm0-80c13.234 0 24 10.766 24 24s-10.766 24-24 24-24-10.766-24-24 10.766-24 24-24zm240.971 23.029c-9.373-9.373-24.568-9.373-33.941 0L288 238.059l-31.029-31.03c-9.373-9.373-24.569-9.373-33.941 0l-88 88A24.002 24.002 0 00128 312v28c0 6.627 5.373 12 12 12h360c6.627 0 12-5.373 12-12v-92c0-6.365-2.529-12.47-7.029-16.971l-88-88zM480 320H160v-4.686l80-80 48 48 112-112 80 80V320z"/></symbol><symbol viewBox="0 0 512 512" id="link" xmlns="http://www.w3.org/2000/svg"><path d="M301.148 394.702l-79.2 79.19c-50.778 50.799-133.037 50.824-183.84 0-50.799-50.778-50.824-133.037 0-183.84l79.19-79.2a132.833 132.833 0 013.532-3.403c7.55-7.005 19.795-2.004 20.208 8.286.193 4.807.598 9.607 1.216 14.384.481 3.717-.746 7.447-3.397 10.096-16.48 16.469-75.142 75.128-75.3 75.286-36.738 36.759-36.731 96.188 0 132.94 36.759 36.738 96.188 36.731 132.94 0l79.2-79.2.36-.36c36.301-36.672 36.14-96.07-.37-132.58-8.214-8.214-17.577-14.58-27.585-19.109-4.566-2.066-7.426-6.667-7.134-11.67a62.197 62.197 0 012.826-15.259c2.103-6.601 9.531-9.961 15.919-7.28 15.073 6.324 29.187 15.62 41.435 27.868 50.688 50.689 50.679 133.17 0 183.851zm-90.296-93.554c12.248 12.248 26.362 21.544 41.435 27.868 6.388 2.68 13.816-.68 15.919-7.28a62.197 62.197 0 002.826-15.259c.292-5.003-2.569-9.604-7.134-11.67-10.008-4.528-19.371-10.894-27.585-19.109-36.51-36.51-36.671-95.908-.37-132.58l.36-.36 79.2-79.2c36.752-36.731 96.181-36.738 132.94 0 36.731 36.752 36.738 96.181 0 132.94-.157.157-58.819 58.817-75.3 75.286-2.651 2.65-3.878 6.379-3.397 10.096a163.156 163.156 0 011.216 14.384c.413 10.291 12.659 15.291 20.208 8.286a131.324 131.324 0 003.532-3.403l79.19-79.2c50.824-50.803 50.799-133.062 0-183.84-50.802-50.824-133.062-50.799-183.84 0l-79.2 79.19c-50.679 50.682-50.688 133.163 0 183.851z"/></symbol><symbol viewBox="0 0 448 512" id="linkedin-in" xmlns="http://www.w3.org/2000/svg"><path d="M100.28 448H7.4V148.9h92.88zM53.79 108.1C24.09 108.1 0 83.5 0 53.8a53.79 53.79 0 01107.58 0c0 29.7-24.1 54.3-53.79 54.3zM447.9 448h-92.68V302.4c0-34.7-.7-79.2-48.29-79.2-48.29 0-55.69 37.7-55.69 76.7V448h-92.78V148.9h89.08v40.8h1.3c12.4-23.5 42.69-48.3 87.88-48.3 94 0 111.28 61.9 111.28 142.3V448z"/></symbol><symbol viewBox="0 0 384 512" id="map-marker-alt" xmlns="http://www.w3.org/2000/svg"><path d="M192 96c-52.935 0-96 43.065-96 96s43.065 96 96 96 96-43.065 96-96-43.065-96-96-96zm0 160c-35.29 0-64-28.71-64-64s28.71-64 64-64 64 28.71 64 64-28.71 64-64 64zm0-256C85.961 0 0 85.961 0 192c0 77.413 26.97 99.031 172.268 309.67 9.534 13.772 29.929 13.774 39.465 0C357.03 291.031 384 269.413 384 192 384 85.961 298.039 0 192 0zm0 473.931C52.705 272.488 32 256.494 32 192c0-42.738 16.643-82.917 46.863-113.137S149.262 32 192 32s82.917 16.643 113.137 46.863S352 149.262 352 192c0 64.49-20.692 80.47-160 281.931z"/></symbol><symbol viewBox="0 0 512 512" id="minus-circle" xmlns="http://www.w3.org/2000/svg"><path d="M140 274c-6.6 0-12-5.4-12-12v-12c0-6.6 5.4-12 12-12h232c6.6 0 12 5.4 12 12v12c0 6.6-5.4 12-12 12H140zm364-18c0 137-111 248-248 248S8 393 8 256 119 8 256 8s248 111 248 248zm-32 0c0-119.9-97.3-216-216-216-119.9 0-216 97.3-216 216 0 119.9 97.3 216 216 216 119.9 0 216-97.3 216-216z"/></symbol><symbol viewBox="0 0 512 512" id="pencil" xmlns="http://www.w3.org/2000/svg"><path d="M493.255 56.236l-37.49-37.49c-24.993-24.993-65.515-24.994-90.51 0L12.838 371.162.151 485.346c-1.698 15.286 11.22 28.203 26.504 26.504l114.184-12.687 352.417-352.417c24.992-24.994 24.992-65.517-.001-90.51zm-95.196 140.45L174 420.745V386h-48v-48H91.255l224.059-224.059 82.745 82.745zM126.147 468.598l-58.995 6.555-30.305-30.305 6.555-58.995L63.255 366H98v48h48v34.745l-19.853 19.853zm344.48-344.48l-49.941 49.941-82.745-82.745 49.941-49.941c12.505-12.505 32.748-12.507 45.255 0l37.49 37.49c12.506 12.506 12.507 32.747 0 45.255z"/></symbol><symbol viewBox="0 0 384 512" id="plus" xmlns="http://www.w3.org/2000/svg"><path d="M376 232H216V72c0-4.42-3.58-8-8-8h-32c-4.42 0-8 3.58-8 8v160H8c-4.42 0-8 3.58-8 8v32c0 4.42 3.58 8 8 8h160v160c0 4.42 3.58 8 8 8h32c4.42 0 8-3.58 8-8V280h160c4.42 0 8-3.58 8-8v-32c0-4.42-3.58-8-8-8z"/></symbol><symbol viewBox="0 0 512 512" id="question-circle" xmlns="http://www.w3.org/2000/svg"><path d="M256 340c-15.464 0-28 12.536-28 28s12.536 28 28 28 28-12.536 28-28-12.536-28-28-28zm7.67-24h-16c-6.627 0-12-5.373-12-12v-.381c0-70.343 77.44-63.619 77.44-107.408 0-20.016-17.761-40.211-57.44-40.211-29.144 0-44.265 9.649-59.211 28.692-3.908 4.98-11.054 5.995-16.248 2.376l-13.134-9.15c-5.625-3.919-6.86-11.771-2.645-17.177C185.658 133.514 210.842 116 255.67 116c52.32 0 97.44 29.751 97.44 80.211 0 67.414-77.44 63.849-77.44 107.408V304c0 6.627-5.373 12-12 12zM256 40c118.621 0 216 96.075 216 216 0 119.291-96.61 216-216 216-119.244 0-216-96.562-216-216 0-119.203 96.602-216 216-216m0-32C119.043 8 8 119.083 8 256c0 136.997 111.043 248 248 248s248-111.003 248-248C504 119.083 392.957 8 256 8z"/></symbol><symbol viewBox="0 0 448 512" id="rss" xmlns="http://www.w3.org/2000/svg"><path d="M80 352c26.467 0 48 21.533 48 48s-21.533 48-48 48-48-21.533-48-48 21.533-48 48-48m0-32c-44.183 0-80 35.817-80 80s35.817 80 80 80 80-35.817 80-80-35.817-80-80-80zm367.996 147.615c-6.448-237.848-198.06-429.164-435.61-435.61C5.609 31.821 0 37.229 0 44.007v8.006c0 6.482 5.146 11.816 11.626 11.994 220.81 6.05 398.319 183.913 404.367 404.367.178 6.48 5.512 11.626 11.994 11.626h8.007c6.778 0 12.185-5.609 12.002-12.385zm-144.245-.05c-6.347-158.132-133.207-284.97-291.316-291.316C5.643 175.976 0 181.45 0 188.247v8.005c0 6.459 5.114 11.72 11.567 11.989 141.134 5.891 254.301 119.079 260.192 260.192.269 6.453 5.531 11.567 11.989 11.567h8.005c6.798 0 12.271-5.643 11.998-12.435z"/></symbol><symbol viewBox="0 0 448 512" id="save" xmlns="http://www.w3.org/2000/svg"><path d="M433.941 129.941l-83.882-83.882A48 48 0 00316.118 32H48C21.49 32 0 53.49 0 80v352c0 26.51 21.49 48 48 48h352c26.51 0 48-21.49 48-48V163.882a48 48 0 00-14.059-33.941zM288 64v96H96V64h192zm128 368c0 8.822-7.178 16-16 16H48c-8.822 0-16-7.178-16-16V80c0-8.822 7.178-16 16-16h16v104c0 13.255 10.745 24 24 24h208c13.255 0 24-10.745 24-24V64.491a15.888 15.888 0 017.432 4.195l83.882 83.882A15.895 15.895 0 01416 163.882V432zM224 232c-48.523 0-88 39.477-88 88s39.477 88 88 88 88-39.477 88-88-39.477-88-88-88zm0 144c-30.879 0-56-25.121-56-56s25.121-56 56-56 56 25.121 56 56-25.121 56-56 56z"/></symbol><symbol viewBox="0 0 512 512" id="search" xmlns="http://www.w3.org/2000/svg"><path d="M508.5 481.6l-129-129c-2.3-2.3-5.3-3.5-8.5-3.5h-10.3C395 312 416 262.5 416 208 416 93.1 322.9 0 208 0S0 93.1 0 208s93.1 208 208 208c54.5 0 104-21 141.1-55.2V371c0 3.2 1.3 6.2 3.5 8.5l129 129c4.7 4.7 12.3 4.7 17 0l9.9-9.9c4.7-4.7 4.7-12.3 0-17zM208 384c-97.3 0-176-78.7-176-176S110.7 32 208 32s176 78.7 176 176-78.7 176-176 176z"/></symbol><symbol viewBox="0 0 512 512" id="shield-check" xmlns="http://www.w3.org/2000/svg"><path d="M466.5 83.7l-192-80a48.15 48.15 0 00-36.9 0l-192 80C27.7 91.1 16 108.6 16 128c0 198.5 114.5 335.7 221.5 380.3 11.8 4.9 25.1 4.9 36.9 0C360.1 472.6 496 349.3 496 128c0-19.4-11.7-36.9-29.5-44.3zM262.2 478.8c-4 1.6-8.4 1.6-12.3 0C152 440 48 304 48 128c0-6.5 3.9-12.3 9.8-14.8l192-80c3.9-1.6 8.4-1.6 12.3 0l192 80c6 2.5 9.9 8.3 9.8 14.8.1 176-103.9 312-201.7 350.8zm136.2-325c-4.7-4.7-12.3-4.7-17-.1L218 315.8l-69-69.5c-4.7-4.7-12.3-4.7-17-.1l-8.5 8.5c-4.7 4.7-4.7 12.3-.1 17l85.9 86.6c4.7 4.7 12.3 4.7 17 .1l180.5-179c4.7-4.7 4.7-12.3.1-17z"/></symbol><symbol viewBox="0 0 512 512" id="sign-in" xmlns="http://www.w3.org/2000/svg"><path d="M184 83.5l164.5 164c4.7 4.7 4.7 12.3 0 17L184 428.5c-4.7 4.7-12.3 4.7-17 0l-7.1-7.1c-4.7-4.7-4.7-12.3 0-17l132-131.4H12c-6.6 0-12-5.4-12-12v-10c0-6.6 5.4-12 12-12h279.9L160 107.6c-4.7-4.7-4.7-12.3 0-17l7.1-7.1c4.6-4.7 12.2-4.7 16.9 0zM512 400V112c0-26.5-21.5-48-48-48H332c-6.6 0-12 5.4-12 12v8c0 6.6 5.4 12 12 12h132c8.8 0 16 7.2 16 16v288c0 8.8-7.2 16-16 16H332c-6.6 0-12 5.4-12 12v8c0 6.6 5.4 12 12 12h132c26.5 0 48-21.5 48-48z"/></symbol><symbol viewBox="0 0 448 512" id="slack" xmlns="http://www.w3.org/2000/svg"><path d="M94.12 315.1c0 25.9-21.16 47.06-47.06 47.06S0 341 0 315.1c0-25.9 21.16-47.06 47.06-47.06h47.06v47.06zm23.72 0c0-25.9 21.16-47.06 47.06-47.06s47.06 21.16 47.06 47.06v117.84c0 25.9-21.16 47.06-47.06 47.06s-47.06-21.16-47.06-47.06V315.1zm47.06-188.98c-25.9 0-47.06-21.16-47.06-47.06S139 32 164.9 32s47.06 21.16 47.06 47.06v47.06H164.9zm0 23.72c25.9 0 47.06 21.16 47.06 47.06s-21.16 47.06-47.06 47.06H47.06C21.16 243.96 0 222.8 0 196.9s21.16-47.06 47.06-47.06H164.9zm188.98 47.06c0-25.9 21.16-47.06 47.06-47.06 25.9 0 47.06 21.16 47.06 47.06s-21.16 47.06-47.06 47.06h-47.06V196.9zm-23.72 0c0 25.9-21.16 47.06-47.06 47.06-25.9 0-47.06-21.16-47.06-47.06V79.06c0-25.9 21.16-47.06 47.06-47.06 25.9 0 47.06 21.16 47.06 47.06V196.9zM283.1 385.88c25.9 0 47.06 21.16 47.06 47.06 0 25.9-21.16 47.06-47.06 47.06-25.9 0-47.06-21.16-47.06-47.06v-47.06h47.06zm0-23.72c-25.9 0-47.06-21.16-47.06-47.06 0-25.9 21.16-47.06 47.06-47.06h117.84c25.9 0 47.06 21.16 47.06 47.06 0 25.9-21.16 47.06-47.06 47.06H283.1z"/></symbol><symbol viewBox="0 0 512 512" id="spinner" xmlns="http://www.w3.org/2000/svg"><path d="M288 32c0 17.673-14.327 32-32 32s-32-14.327-32-32 14.327-32 32-32 32 14.327 32 32zm-32 416c-17.673 0-32 14.327-32 32s14.327 32 32 32 32-14.327 32-32-14.327-32-32-32zm256-192c0-17.673-14.327-32-32-32s-32 14.327-32 32 14.327 32 32 32 32-14.327 32-32zm-448 0c0-17.673-14.327-32-32-32S0 238.327 0 256s14.327 32 32 32 32-14.327 32-32zm33.608 126.392c-17.673 0-32 14.327-32 32s14.327 32 32 32 32-14.327 32-32-14.327-32-32-32zm316.784 0c-17.673 0-32 14.327-32 32s14.327 32 32 32 32-14.327 32-32-14.327-32-32-32zM97.608 65.608c-17.673 0-32 14.327-32 32 0 17.673 14.327 32 32 32s32-14.327 32-32c0-17.673-14.327-32-32-32z"/></symbol><symbol viewBox="0 0 512 512" id="th" xmlns="http://www.w3.org/2000/svg"><path d="M0 80v352c0 26.51 21.49 48 48 48h416c26.51 0 48-21.49 48-48V80c0-26.51-21.49-48-48-48H48C21.49 32 0 53.49 0 80zm320-16v106.667H192V64h128zm160 245.333H352V202.667h128v106.666zm-160 0H192V202.667h128v106.666zM32 202.667h128v106.667H32V202.667zM160 64v106.667H32V80c0-8.837 7.163-16 16-16h112zM32 432v-90.667h128V448H48c-8.837 0-16-7.163-16-16zm160 16V341.333h128V448H192zm160 0V341.333h128V432c0 8.837-7.163 16-16 16H352zm128-277.333H352V64h112c8.837 0 16 7.163 16 16v90.667z"/></symbol><symbol viewBox="0 0 512 512" id="thumbs-up" xmlns="http://www.w3.org/2000/svg"><path d="M496.656 285.683C506.583 272.809 512 256 512 235.468c-.001-37.674-32.073-72.571-72.727-72.571h-70.15c8.72-17.368 20.695-38.911 20.695-69.817C389.819 34.672 366.518 0 306.91 0c-29.995 0-41.126 37.918-46.829 67.228-3.407 17.511-6.626 34.052-16.525 43.951C219.986 134.75 184 192 162.382 203.625c-2.189.922-4.986 1.648-8.032 2.223C148.577 197.484 138.931 192 128 192H32c-17.673 0-32 14.327-32 32v256c0 17.673 14.327 32 32 32h96c17.673 0 32-14.327 32-32v-8.74c32.495 0 100.687 40.747 177.455 40.726 5.505.003 37.65.03 41.013 0 59.282.014 92.255-35.887 90.335-89.793 15.127-17.727 22.539-43.337 18.225-67.105 12.456-19.526 15.126-47.07 9.628-69.405zM32 480V224h96v256H32zm424.017-203.648C472 288 472 336 450.41 347.017c13.522 22.76 1.352 53.216-15.015 61.996 8.293 52.54-18.961 70.606-57.212 70.974-3.312.03-37.247 0-40.727 0-72.929 0-134.742-40.727-177.455-40.727V235.625c37.708 0 72.305-67.939 106.183-101.818 30.545-30.545 20.363-81.454 40.727-101.817 50.909 0 50.909 35.517 50.909 61.091 0 42.189-30.545 61.09-30.545 101.817h111.999c22.73 0 40.627 20.364 40.727 40.727.099 20.363-8.001 36.375-23.984 40.727zM104 432c0 13.255-10.745 24-24 24s-24-10.745-24-24 10.745-24 24-24 24 10.745 24 24z"/></symbol><symbol viewBox="0 0 320 512" id="times" xmlns="http://www.w3.org/2000/svg"><path d="M193.94 256L296.5 153.44l21.15-21.15c3.12-3.12 3.12-8.19 0-11.31l-22.63-22.63c-3.12-3.12-8.19-3.12-11.31 0L160 222.06 36.29 98.34c-3.12-3.12-8.19-3.12-11.31 0L2.34 120.97c-3.12 3.12-3.12 8.19 0 11.31L126.06 256 2.34 379.71c-3.12 3.12-3.12 8.19 0 11.31l22.63 22.63c3.12 3.12 8.19 3.12 11.31 0L160 289.94 262.56 392.5l21.15 21.15c3.12 3.12 8.19 3.12 11.31 0l22.63-22.63c3.12-3.12 3.12-8.19 0-11.31L193.94 256z"/></symbol><symbol viewBox="0 0 576 512" id="toggle-off" xmlns="http://www.w3.org/2000/svg"><path d="M384 96c42.738 0 82.917 16.643 113.137 46.863S544 213.262 544 256s-16.643 82.917-46.863 113.137S426.738 416 384 416H192c-42.738 0-82.917-16.643-113.137-46.863S32 298.738 32 256s16.643-82.917 46.863-113.137S149.262 96 192 96h192m0-32H192C85.961 64 0 149.961 0 256s85.961 192 192 192h192c106.039 0 192-85.961 192-192S490.039 64 384 64zm-192 96c52.935 0 96 43.065 96 96s-43.065 96-96 96-96-43.065-96-96 43.065-96 96-96m0-32c-70.692 0-128 57.307-128 128s57.308 128 128 128 128-57.307 128-128-57.308-128-128-128z"/></symbol><symbol viewBox="0 0 576 512" id="toggle-on" xmlns="http://www.w3.org/2000/svg"><path d="M384 96c88.426 0 160 71.561 160 160 0 88.426-71.561 160-160 160H192c-88.426 0-160-71.561-160-160 0-88.425 71.561-160 160-160h192m0-32H192C85.961 64 0 149.961 0 256s85.961 192 192 192h192c106.039 0 192-85.961 192-192S490.039 64 384 64zm0 304c61.856 0 112-50.144 112-112s-50.144-112-112-112-112 50.144-112 112c0 28.404 10.574 54.339 27.999 74.082C320.522 353.335 350.548 368 384 368z"/></symbol><symbol viewBox="0 0 448 512" id="trash" xmlns="http://www.w3.org/2000/svg"><path d="M440 64H336l-33.6-44.8A48 48 0 00264 0h-80a48 48 0 00-38.4 19.2L112 64H8a8 8 0 00-8 8v16a8 8 0 008 8h18.9l33.2 372.3a48 48 0 0047.8 43.7h232.2a48 48 0 0047.8-43.7L421.1 96H440a8 8 0 008-8V72a8 8 0 00-8-8zM171.2 38.4A16.1 16.1 0 01184 32h80a16.1 16.1 0 0112.8 6.4L296 64H152zm184.8 427a15.91 15.91 0 01-15.9 14.6H107.9A15.91 15.91 0 0192 465.4L59 96h330z"/></symbol><symbol viewBox="0 0 576 512" id="trophy" xmlns="http://www.w3.org/2000/svg"><path d="M448 64V12c0-6.6-5.4-12-12-12H140c-6.6 0-12 5.4-12 12v52H12C5.4 64 0 69.4 0 76v61.6C0 199.7 68.1 272 160.7 285.7c29.4 60.7 73.7 90.3 111.3 96.9V480h-86c-14.4 0-26 11.7-26 26.1 0 3.3 2.7 5.9 6 5.9h244c3.3 0 6-2.6 6-5.9 0-14.4-11.6-26.1-26-26.1h-86v-97.4c37.7-6.6 81.9-36.2 111.3-96.9C508 272 576 199.6 576 137.6V76c0-6.6-5.4-12-12-12H448zM32 137.6V96h96v24c0 51.8 7 94.9 18.5 130.2C77.9 232.5 32 178 32 137.6zM288 352c-72 0-128-104-128-232V32h256v88c0 128-56 232-128 232zm256-214.4c0 40.4-46 94.9-114.5 112.6C441 214.9 448 171.8 448 120V96h96v41.6z"/></symbol><symbol viewBox="0 0 512 512" id="twitter" xmlns="http://www.w3.org/2000/svg"><path d="M459.37 151.716c.325 4.548.325 9.097.325 13.645 0 138.72-105.583 298.558-298.558 298.558-59.452 0-114.68-17.219-161.137-47.106 8.447.974 16.568 1.299 25.34 1.299 49.055 0 94.213-16.568 130.274-44.832-46.132-.975-84.792-31.188-98.112-72.772 6.498.974 12.995 1.624 19.818 1.624 9.421 0 18.843-1.3 27.614-3.573-48.081-9.747-84.143-51.98-84.143-102.985v-1.299c13.969 7.797 30.214 12.67 47.431 13.319-28.264-18.843-46.781-51.005-46.781-87.391 0-19.492 5.197-37.36 14.294-52.954 51.655 63.675 129.3 105.258 216.365 109.807-1.624-7.797-2.599-15.918-2.599-24.04 0-57.828 46.782-104.934 104.934-104.934 30.213 0 57.502 12.67 76.67 33.137 23.715-4.548 46.456-13.32 66.599-25.34-7.798 24.366-24.366 44.833-46.132 57.827 21.117-2.273 41.584-8.122 60.426-16.243-14.292 20.791-32.161 39.308-52.628 54.253z"/></symbol><symbol viewBox="0 0 512 512" id="university" xmlns="http://www.w3.org/2000/svg"><path d="M496 448h-16v-40c0-13.255-10.745-24-24-24h-40V208h-32v176h-64V208h-32v176h-64V208h-32v176h-64V208H96v176H56c-13.255 0-24 10.745-24 24v40H16c-8.837 0-16 7.163-16 16v8a8 8 0 008 8h496a8 8 0 008-8v-8c0-8.837-7.163-16-16-16zM64 416h384v32H64v-32zm440.267-280L271.179 34.463a48.004 48.004 0 00-30.358 0L7.733 136A11.999 11.999 0 000 147.216V156c0 6.627 5.373 12 12 12h20v12c0 6.627 5.373 12 12 12h424c6.627 0 12-5.373 12-12v-12h20c6.627 0 12-5.373 12-12v-8.784c0-4.982-3.077-9.445-7.733-11.216zM448 160H64v-13.606l187.943-81.871a16.004 16.004 0 018.114 0L448 146.394V160z"/></symbol><symbol viewBox="0 0 448 512" id="user" xmlns="http://www.w3.org/2000/svg"><path d="M313.6 288c-28.7 0-42.5 16-89.6 16-47.1 0-60.8-16-89.6-16C60.2 288 0 348.2 0 422.4V464c0 26.5 21.5 48 48 48h352c26.5 0 48-21.5 48-48v-41.6c0-74.2-60.2-134.4-134.4-134.4zM416 464c0 8.8-7.2 16-16 16H48c-8.8 0-16-7.2-16-16v-41.6C32 365.9 77.9 320 134.4 320c19.6 0 39.1 16 89.6 16 50.4 0 70-16 89.6-16 56.5 0 102.4 45.9 102.4 102.4V464zM224 256c70.7 0 128-57.3 128-128S294.7 0 224 0 96 57.3 96 128s57.3 128 128 128zm0-224c52.9 0 96 43.1 96 96s-43.1 96-96 96-96-43.1-96-96 43.1-96 96-96z"/></symbol><symbol viewBox="0 0 640 512" id="user-plus" xmlns="http://www.w3.org/2000/svg"><path d="M632 224h-88v-88c0-4.4-3.6-8-8-8h-16c-4.4 0-8 3.6-8 8v88h-88c-4.4 0-8 3.6-8 8v16c0 4.4 3.6 8 8 8h88v88c0 4.4 3.6 8 8 8h16c4.4 0 8-3.6 8-8v-88h88c4.4 0 8-3.6 8-8v-16c0-4.4-3.6-8-8-8zm-318.4 64c-28.7 0-42.5 16-89.6 16-47.1 0-60.8-16-89.6-16C60.2 288 0 348.2 0 422.4V464c0 26.5 21.5 48 48 48h352c26.5 0 48-21.5 48-48v-41.6c0-74.2-60.2-134.4-134.4-134.4zM416 464c0 8.8-7.2 16-16 16H48c-8.8 0-16-7.2-16-16v-41.6C32 365.9 77.9 320 134.4 320c19.6 0 39.1 16 89.6 16 50.4 0 70-16 89.6-16 56.5 0 102.4 45.9 102.4 102.4V464zM224 256c70.7 0 128-57.3 128-128S294.7 0 224 0 96 57.3 96 128s57.3 128 128 128zm0-224c52.9 0 96 43.1 96 96s-43.1 96-96 96-96-43.1-96-96 43.1-96 96-96z"/></symbol><symbol viewBox="0 0 384 512" id="xing" xmlns="http://www.w3.org/2000/svg"><path d="M162.7 210c-1.8 3.3-25.2 44.4-70.1 123.5-4.9 8.3-10.8 12.5-17.7 12.5H9.8c-7.7 0-12.1-7.5-8.5-14.4l69-121.3c.2 0 .2-.1 0-.3l-43.9-75.6c-4.3-7.8.3-14.1 8.5-14.1H100c7.3 0 13.3 4.1 18 12.2l44.7 77.5zM382.6 46.1l-144 253v.3L330.2 466c3.9 7.1.2 14.1-8.5 14.1h-65.2c-7.6 0-13.6-4-18-12.2l-92.4-168.5c3.3-5.8 51.5-90.8 144.8-255.2 4.6-8.1 10.4-12.2 17.5-12.2h65.7c8 0 12.3 6.7 8.5 14.1z"/></symbol><symbol viewBox="0 0 576 512" id="youtube" xmlns="http://www.w3.org/2000/svg"><path d="M549.655 124.083c-6.281-23.65-24.787-42.276-48.284-48.597C458.781 64 288 64 288 64S117.22 64 74.629 75.486c-23.497 6.322-42.003 24.947-48.284 48.597-11.412 42.867-11.412 132.305-11.412 132.305s0 89.438 11.412 132.305c6.281 23.65 24.787 41.5 48.284 47.821C117.22 448 288 448 288 448s170.78 0 213.371-11.486c23.497-6.321 42.003-24.171 48.284-47.821 11.412-42.867 11.412-132.305 11.412-132.305s0-89.438-11.412-132.305zm-317.51 213.508V175.185l142.739 81.205-142.739 81.201z"/></symbol></svg>
