<svg id="Ebene_1" xmlns="http://www.w3.org/2000/svg" width="55.3" height="54" viewBox="0 0 55.3 54"><style>.st0{fill:#ff8700}</style><path class="st0" d="M41.4 33c-.4.1-.7.1-1 .1-3 0-7.5-10.6-7.5-14.1 0-1.3.3-1.7.7-2.1-3.7.4-8.2 1.8-9.6 3.5-.2.4-.4 1.1-.4 2 0 5.5 5.9 18 10 18 1.9 0 5.1-3.2 7.8-7.4m-1.9-16.5c3.8 0 7.7.6 7.7 2.8 0 4.4-2.8 9.7-4.2 9.7-2.5 0-5.7-7-5.7-10.6 0-1.6.6-1.9 2.2-1.9"/><path class="st0" d="M51.2 0H12.5c-2.3 0-4.2 1.9-4.2 4.2v1.3H5.2C2.3 5.5 0 7.8 0 10.7v2.1C0 15.6 2.3 18 5.2 18h3.1v2.5H5c-2.8 0-5 2.3-5 5v2.1c0 2.8 2.3 5 5 5h3.3V36H5.2C2.3 36 0 38.4 0 41.2v2.1c0 2.9 2.3 5.2 5.2 5.2h3.1v1.3c0 2.3 1.9 4.2 4.2 4.2h38.7c2.3 0 4.2-1.9 4.2-4.2V4.2C55.3 1.9 53.5 0 51.2 0zM5 28.6c-.6 0-1-.5-1-1v-2.1c0-.6.5-1 1-1h6.5c.6 0 1 .5 1 1v2.1c0 .6-.5 1-1 1H5zm7.8 14.7c0 .6-.5 1-1 1H5.2c-.6 0-1-.5-1-1v-2.1c0-.6.5-1 1-1h6.5c.6 0 1 .5 1 1v2.1zm0-30.5c0 .6-.5 1-1 1H5.2c-.6 0-1-.5-1-1v-2.1c0-.6.5-1 1-1h6.5c.6 0 1 .5 1 1v2.1zm38.4 37H18V4.2h33.2v45.6z"/></svg>